{
    "asset" : {
        "generator" : "Khronos glTF Blender I/O v3.4.50",
        "version" : "2.0"
    },
    "scene" : 0,
    "scenes" : [
        {
            "name" : "Scene",
            "nodes" : [
                7
            ]
        }
    ],
    "nodes" : [
        {
            "mesh" : 0,
            "name" : "body.002"
        },
        {
            "mesh" : 1,
            "name" : "sun_flower_4-colonly",
            "rotation" : [
                0.003656021784991026,
                0.3740772008895874,
                -0.24221311509609222,
                0.8952015042304993
            ],
            "scale" : [
                7.635736465454102,
                0.4944849908351898,
                7.635738849639893
            ],
            "translation" : [
                2.3583414554595947,
                26.576616287231445,
                2.1251220703125
            ]
        },
        {
            "name" : "end",
            "rotation" : [
                3.019806626980426e-14,
                2.842170943040401e-14,
                6.0279121065570065e-22,
                1
            ],
            "translation" : [
                -5.4854497409228403e-14,
                6.69113826751709,
                3.7459235500136856e-06
            ]
        },
        {
            "children" : [
                2
            ],
            "name" : "3",
            "rotation" : [
                -1.2789769243681803e-13,
                -1.3500311979441904e-13,
                -1.938645187843988e-21,
                1
            ],
            "translation" : [
                4.5213714093246885e-14,
                7.7383928298950195,
                -2.9844638902432052e-06
            ]
        },
        {
            "children" : [
                3
            ],
            "name" : "2",
            "rotation" : [
                3.552713678800501e-14,
                3.552713678800501e-14,
                3.108357838737726e-22,
                1
            ],
            "translation" : [
                2.9462089506330363e-14,
                7.807186603546143,
                -1.944740461112815e-06
            ]
        },
        {
            "children" : [
                4
            ],
            "name" : "1",
            "rotation" : [
                2.842170943040401e-14,
                3.552713678800501e-14,
                5.270860092518423e-22,
                1
            ],
            "translation" : [
                1.357059098070195e-14,
                6.66703462600708,
                -8.957750310401025e-07
            ]
        },
        {
            "children" : [
                5
            ],
            "name" : "root",
            "rotation" : [
                6.339203650895797e-08,
                7.574776361707336e-09,
                5.088690720462098e-16,
                1
            ]
        },
        {
            "children" : [
                0,
                1,
                6
            ],
            "name" : "sun_flower_4",
            "translation" : [
                0,
                0,
                86.51443481445312
            ]
        }
    ],
    "materials" : [
        {
            "doubleSided" : true,
            "name" : "sunflower",
            "pbrMetallicRoughness" : {
                "baseColorTexture" : {
                    "index" : 0
                },
                "metallicFactor" : 0
            }
        }
    ],
    "meshes" : [
        {
            "name" : "Cylinder.002",
            "primitives" : [
                {
                    "attributes" : {
                        "POSITION" : 0,
                        "TEXCOORD_0" : 1,
                        "NORMAL" : 2
                    },
                    "indices" : 3,
                    "material" : 0
                }
            ]
        },
        {
            "name" : "Cylinder.009",
            "primitives" : [
                {
                    "attributes" : {
                        "POSITION" : 4,
                        "TEXCOORD_0" : 5,
                        "NORMAL" : 6
                    },
                    "indices" : 7
                }
            ]
        }
    ],
    "textures" : [
        {
            "sampler" : 0,
            "source" : 0
        }
    ],
    "images" : [
        {
            "bufferView" : 4,
            "mimeType" : "image/png",
            "name" : "sunflower_albedo"
        }
    ],
    "accessors" : [
        {
            "bufferView" : 0,
            "componentType" : 5126,
            "count" : 7518,
            "max" : [
                9.531730651855469,
                30.2043514251709,
                10.698783874511719
            ],
            "min" : [
                -5.156586647033691,
                -1.0000001192092896,
                -6.540846347808838
            ],
            "type" : "VEC3"
        },
        {
            "bufferView" : 1,
            "componentType" : 5126,
            "count" : 7518,
            "type" : "VEC2"
        },
        {
            "bufferView" : 2,
            "componentType" : 5126,
            "count" : 7518,
            "type" : "VEC3"
        },
        {
            "bufferView" : 3,
            "componentType" : 5123,
            "count" : 38508,
            "type" : "SCALAR"
        },
        {
            "bufferView" : 5,
            "componentType" : 5126,
            "count" : 248,
            "max" : [
                1,
                1,
                1
            ],
            "min" : [
                -1,
                -1,
                -1
            ],
            "type" : "VEC3"
        },
        {
            "bufferView" : 6,
            "componentType" : 5126,
            "count" : 248,
            "type" : "VEC2"
        },
        {
            "bufferView" : 7,
            "componentType" : 5126,
            "count" : 248,
            "type" : "VEC3"
        },
        {
            "bufferView" : 8,
            "componentType" : 5123,
            "count" : 528,
            "type" : "SCALAR"
        }
    ],
    "bufferViews" : [
        {
            "buffer" : 0,
            "byteLength" : 90216,
            "byteOffset" : 0,
            "target" : 34962
        },
        {
            "buffer" : 0,
            "byteLength" : 60144,
            "byteOffset" : 90216,
            "target" : 34962
        },
        {
            "buffer" : 0,
            "byteLength" : 90216,
            "byteOffset" : 150360,
            "target" : 34962
        },
        {
            "buffer" : 0,
            "byteLength" : 77016,
            "byteOffset" : 240576,
            "target" : 34963
        },
        {
            "buffer" : 0,
            "byteLength" : 189639,
            "byteOffset" : 317592
        },
        {
            "buffer" : 0,
            "byteLength" : 2976,
            "byteOffset" : 507232,
            "target" : 34962
        },
        {
            "buffer" : 0,
            "byteLength" : 1984,
            "byteOffset" : 510208,
            "target" : 34962
        },
        {
            "buffer" : 0,
            "byteLength" : 2976,
            "byteOffset" : 512192,
            "target" : 34962
        },
        {
            "buffer" : 0,
            "byteLength" : 1056,
            "byteOffset" : 515168,
            "target" : 34963
        }
    ],
    "samplers" : [
        {
            "magFilter" : 9729,
            "minFilter" : 9987
        }
    ],
    "buffers" : [
        {
            "byteLength" : 516224,
            "uri" : "data:application/octet-stream;base64,"
        }
    ]
}
