{
    "asset" : {
        "generator" : "Khronos glTF Blender I/O v3.4.50",
        "version" : "2.0"
    },
    "scene" : 0,
    "scenes" : [
        {
            "name" : "Scene",
            "nodes" : [
                8
            ]
        }
    ],
    "nodes" : [
        {
            "mesh" : 0,
            "name" : "body.003"
        },
        {
            "mesh" : 1,
            "name" : "body.004"
        },
        {
            "mesh" : 2,
            "name" : "sun_flower_2-colonly",
            "rotation" : [
                -0.16200445592403412,
                0.4338359236717224,
                -0.30782610177993774,
                0.8311342597007751
            ],
            "scale" : [
                5.703601837158203,
                0.37900665402412415,
                6.31548547744751
            ],
            "translation" : [
                5.263388156890869,
                28.268911361694336,
                -4.1241302490234375
            ]
        },
        {
            "name" : "end",
            "rotation" : [
                3.019806626980426e-14,
                2.842170943040401e-14,
                6.358784351578218e-22,
                1
            ],
            "translation" : [
                3.04106376582472e-14,
                6.691138744354248,
                -1.9761223484238144e-06
            ]
        },
        {
            "children" : [
                3
            ],
            "name" : "3",
            "rotation" : [
                -1.2789769243681803e-13,
                -1.3500311979441904e-13,
                -1.9584975225452607e-21,
                1
            ],
            "translation" : [
                -1.162970476756113e-14,
                7.738393306732178,
                2.7375820081942948e-06
            ]
        },
        {
            "children" : [
                4
            ],
            "name" : "2",
            "rotation" : [
                3.552713678800501e-14,
                3.552713678800501e-14,
                2.909834491724999e-22,
                1
            ],
            "translation" : [
                5.788379893673437e-14,
                7.807186126708984,
                -1.944740461112815e-06
            ]
        },
        {
            "children" : [
                5
            ],
            "name" : "1",
            "rotation" : [
                2.842170943040401e-14,
                3.552713678800501e-14,
                5.3370345415226655e-22,
                1
            ],
            "translation" : [
                1.3570591827734898e-14,
                6.66703462600708,
                -2.8031236070091836e-06
            ]
        },
        {
            "children" : [
                6
            ],
            "name" : "root",
            "rotation" : [
                6.339203650895797e-08,
                7.574776361707336e-09,
                5.088690720462098e-16,
                1
            ],
            "translation" : [
                0,
                0,
                -1.9073486328125e-06
            ]
        },
        {
            "children" : [
                0,
                1,
                2,
                7
            ],
            "name" : "sun_flower_2",
            "scale" : [
                1,
                1.3334625959396362,
                1
            ],
            "translation" : [
                0,
                0,
                29.487119674682617
            ]
        }
    ],
    "materials" : [
        {
            "doubleSided" : true,
            "name" : "sunflower",
            "pbrMetallicRoughness" : {
                "baseColorTexture" : {
                    "index" : 0
                },
                "metallicFactor" : 0
            }
        }
    ],
    "meshes" : [
        {
            "name" : "Cylinder.003",
            "primitives" : [
                {
                    "attributes" : {
                        "POSITION" : 0,
                        "TEXCOORD_0" : 1,
                        "NORMAL" : 2
                    },
                    "indices" : 3,
                    "material" : 0
                }
            ]
        },
        {
            "name" : "Cylinder.004",
            "primitives" : [
                {
                    "attributes" : {
                        "POSITION" : 4,
                        "TEXCOORD_0" : 5,
                        "NORMAL" : 6
                    },
                    "indices" : 3,
                    "material" : 0
                }
            ]
        },
        {
            "name" : "Cylinder.007",
            "primitives" : [
                {
                    "attributes" : {
                        "POSITION" : 7,
                        "TEXCOORD_0" : 8,
                        "NORMAL" : 9
                    },
                    "indices" : 10
                }
            ]
        }
    ],
    "textures" : [
        {
            "sampler" : 0,
            "source" : 0
        }
    ],
    "images" : [
        {
            "bufferView" : 4,
            "mimeType" : "image/png",
            "name" : "sunflower_albedo"
        }
    ],
    "accessors" : [
        {
            "bufferView" : 0,
            "componentType" : 5126,
            "count" : 7518,
            "max" : [
                11.916584968566895,
                31.201976776123047,
                2.085622787475586
            ],
            "min" : [
                -1.8021879196166992,
                -1,
                -9.808382987976074
            ],
            "type" : "VEC3"
        },
        {
            "bufferView" : 1,
            "componentType" : 5126,
            "count" : 7518,
            "type" : "VEC2"
        },
        {
            "bufferView" : 2,
            "componentType" : 5126,
            "count" : 7518,
            "type" : "VEC3"
        },
        {
            "bufferView" : 3,
            "componentType" : 5123,
            "count" : 38508,
            "type" : "SCALAR"
        },
        {
            "bufferView" : 5,
            "componentType" : 5126,
            "count" : 7518,
            "max" : [
                11.916584968566895,
                31.201976776123047,
                2.085622787475586
            ],
            "min" : [
                -1.8021879196166992,
                -1,
                -9.808382987976074
            ],
            "type" : "VEC3"
        },
        {
            "bufferView" : 6,
            "componentType" : 5126,
            "count" : 7518,
            "type" : "VEC2"
        },
        {
            "bufferView" : 7,
            "componentType" : 5126,
            "count" : 7518,
            "type" : "VEC3"
        },
        {
            "bufferView" : 8,
            "componentType" : 5126,
            "count" : 248,
            "max" : [
                1,
                1,
                1
            ],
            "min" : [
                -1,
                -1,
                -1
            ],
            "type" : "VEC3"
        },
        {
            "bufferView" : 9,
            "componentType" : 5126,
            "count" : 248,
            "type" : "VEC2"
        },
        {
            "bufferView" : 10,
            "componentType" : 5126,
            "count" : 248,
            "type" : "VEC3"
        },
        {
            "bufferView" : 11,
            "componentType" : 5123,
            "count" : 528,
            "type" : "SCALAR"
        }
    ],
    "bufferViews" : [
        {
            "buffer" : 0,
            "byteLength" : 90216,
            "byteOffset" : 0,
            "target" : 34962
        },
        {
            "buffer" : 0,
            "byteLength" : 60144,
            "byteOffset" : 90216,
            "target" : 34962
        },
        {
            "buffer" : 0,
            "byteLength" : 90216,
            "byteOffset" : 150360,
            "target" : 34962
        },
        {
            "buffer" : 0,
            "byteLength" : 77016,
            "byteOffset" : 240576,
            "target" : 34963
        },
        {
            "buffer" : 0,
            "byteLength" : 189639,
            "byteOffset" : 317592
        },
        {
            "buffer" : 0,
            "byteLength" : 90216,
            "byteOffset" : 507232,
            "target" : 34962
        },
        {
            "buffer" : 0,
            "byteLength" : 60144,
            "byteOffset" : 597448,
            "target" : 34962
        },
        {
            "buffer" : 0,
            "byteLength" : 90216,
            "byteOffset" : 657592,
            "target" : 34962
        },
        {
            "buffer" : 0,
            "byteLength" : 2976,
            "byteOffset" : 747808,
            "target" : 34962
        },
        {
            "buffer" : 0,
            "byteLength" : 1984,
            "byteOffset" : 750784,
            "target" : 34962
        },
        {
            "buffer" : 0,
            "byteLength" : 2976,
            "byteOffset" : 752768,
            "target" : 34962
        },
        {
            "buffer" : 0,
            "byteLength" : 1056,
            "byteOffset" : 755744,
            "target" : 34963
        }
    ],
    "samplers" : [
        {
            "magFilter" : 9729,
            "minFilter" : 9987
        }
    ],
    "buffers" : [
        {
            "byteLength" : 756800,
            "uri" : "data:application/octet-stream;base64,"
        }
    ]
}
