{
    "asset" : {
        "generator" : "Khronos glTF Blender I/O v3.4.50",
        "version" : "2.0"
    },
    "scene" : 0,
    "scenes" : [
        {
            "name" : "Scene",
            "nodes" : [
                7
            ]
        }
    ],
    "nodes" : [
        {
            "mesh" : 0,
            "name" : "sun_flower_1-colonly",
            "rotation" : [
                0.2503204047679901,
                0.14443133771419525,
                -0.26795297861099243,
                0.919064998626709
            ],
            "scale" : [
                6.063897609710693,
                0.3861497640609741,
                5.874543190002441
            ],
            "translation" : [
                6.021543979644775,
                22.212873458862305,
                1.5511868000030518
            ]
        },
        {
            "mesh" : 1,
            "name" : "sun_flower_1_body"
        },
        {
            "name" : "end",
            "rotation" : [
                3.019806626980426e-14,
                2.842170943040401e-14,
                6.358784351578218e-22,
                1
            ],
            "translation" : [
                -2.3151668320660053e-16,
                6.691137313842773,
                2.0633251551771536e-08
            ]
        },
        {
            "children" : [
                2
            ],
            "name" : "3",
            "rotation" : [
                -1.2789769243681803e-13,
                -1.3500311979441904e-13,
                -1.9584975225452607e-21,
                1
            ],
            "translation" : [
                -5.274742566117689e-16,
                7.7383928298950195,
                2.557067091402132e-08
            ]
        },
        {
            "children" : [
                3
            ],
            "name" : "2",
            "rotation" : [
                3.552713678800501e-14,
                3.552713678800501e-14,
                2.909834491724999e-22,
                1
            ],
            "translation" : [
                5.962892778895172e-16,
                7.807186126708984,
                -7.589505912619643e-09
            ]
        },
        {
            "children" : [
                4
            ],
            "name" : "1",
            "rotation" : [
                2.842170943040401e-14,
                3.552713678800501e-14,
                5.3370345415226655e-22,
                1
            ],
            "translation" : [
                -1.9617367761704321e-16,
                6.66703462600708,
                -1.705416252661962e-09
            ]
        },
        {
            "children" : [
                5
            ],
            "name" : "root",
            "rotation" : [
                6.339203650895797e-08,
                7.574776361707336e-09,
                5.088690720462098e-16,
                1
            ]
        },
        {
            "children" : [
                0,
                1,
                6
            ],
            "name" : "sun_flower_1",
            "scale" : [
                1,
                1.3334625959396362,
                1
            ],
            "translation" : [
                0,
                0,
                0.4712982177734375
            ]
        }
    ],
    "materials" : [
        {
            "doubleSided" : true,
            "name" : "sunflower",
            "pbrMetallicRoughness" : {
                "baseColorTexture" : {
                    "index" : 0
                },
                "metallicFactor" : 0
            }
        }
    ],
    "meshes" : [
        {
            "name" : "Cylinder.006",
            "primitives" : [
                {
                    "attributes" : {
                        "POSITION" : 0,
                        "TEXCOORD_0" : 1,
                        "NORMAL" : 2
                    },
                    "indices" : 3
                }
            ]
        },
        {
            "name" : "Cylinder.005",
            "primitives" : [
                {
                    "attributes" : {
                        "POSITION" : 4,
                        "TEXCOORD_0" : 5,
                        "NORMAL" : 6
                    },
                    "indices" : 7,
                    "material" : 0
                }
            ]
        }
    ],
    "textures" : [
        {
            "sampler" : 0,
            "source" : 0
        }
    ],
    "images" : [
        {
            "bufferView" : 8,
            "mimeType" : "image/png",
            "name" : "sunflower_albedo"
        }
    ],
    "accessors" : [
        {
            "bufferView" : 0,
            "componentType" : 5126,
            "count" : 192,
            "max" : [
                1,
                1,
                1
            ],
            "min" : [
                -1,
                -1,
                -1
            ],
            "type" : "VEC3"
        },
        {
            "bufferView" : 1,
            "componentType" : 5126,
            "count" : 192,
            "type" : "VEC2"
        },
        {
            "bufferView" : 2,
            "componentType" : 5126,
            "count" : 192,
            "type" : "VEC3"
        },
        {
            "bufferView" : 3,
            "componentType" : 5123,
            "count" : 372,
            "type" : "SCALAR"
        },
        {
            "bufferView" : 4,
            "componentType" : 5126,
            "count" : 7518,
            "max" : [
                11.831197738647461,
                25.040279388427734,
                7.135649681091309
            ],
            "min" : [
                -1.7282277345657349,
                -0.7969366908073425,
                -5.028162479400635
            ],
            "type" : "VEC3"
        },
        {
            "bufferView" : 5,
            "componentType" : 5126,
            "count" : 7518,
            "type" : "VEC2"
        },
        {
            "bufferView" : 6,
            "componentType" : 5126,
            "count" : 7518,
            "type" : "VEC3"
        },
        {
            "bufferView" : 7,
            "componentType" : 5123,
            "count" : 38508,
            "type" : "SCALAR"
        }
    ],
    "bufferViews" : [
        {
            "buffer" : 0,
            "byteLength" : 2304,
            "byteOffset" : 0,
            "target" : 34962
        },
        {
            "buffer" : 0,
            "byteLength" : 1536,
            "byteOffset" : 2304,
            "target" : 34962
        },
        {
            "buffer" : 0,
            "byteLength" : 2304,
            "byteOffset" : 3840,
            "target" : 34962
        },
        {
            "buffer" : 0,
            "byteLength" : 744,
            "byteOffset" : 6144,
            "target" : 34963
        },
        {
            "buffer" : 0,
            "byteLength" : 90216,
            "byteOffset" : 6888,
            "target" : 34962
        },
        {
            "buffer" : 0,
            "byteLength" : 60144,
            "byteOffset" : 97104,
            "target" : 34962
        },
        {
            "buffer" : 0,
            "byteLength" : 90216,
            "byteOffset" : 157248,
            "target" : 34962
        },
        {
            "buffer" : 0,
            "byteLength" : 77016,
            "byteOffset" : 247464,
            "target" : 34963
        },
        {
            "buffer" : 0,
            "byteLength" : 189639,
            "byteOffset" : 324480
        }
    ],
    "samplers" : [
        {
            "magFilter" : 9729,
            "minFilter" : 9987
        }
    ],
    "buffers" : [
        {
            "byteLength" : 514120,
            "uri" : "data:application/octet-stream;base64,"
        }
    ]
}
