{
    "asset" : {
        "generator" : "Khronos glTF Blender I/O v3.4.50",
        "version" : "2.0"
    },
    "scene" : 0,
    "scenes" : [
        {
            "name" : "Scene",
            "nodes" : [
                8
            ]
        }
    ],
    "nodes" : [
        {
            "mesh" : 0,
            "name" : "body"
        },
        {
            "mesh" : 1,
            "name" : "body.001"
        },
        {
            "mesh" : 2,
            "name" : "sun_flower_3-colonly",
            "rotation" : [
                0.025490652769804,
                0.37581688165664673,
                -0.1852131485939026,
                0.907638669013977
            ],
            "scale" : [
                7.635735988616943,
                0.4944849908351898,
                7.635739326477051
            ],
            "translation" : [
                5.525345325469971,
                29.04590606689453,
                -0.61480712890625
            ]
        },
        {
            "name" : "end",
            "rotation" : [
                3.019806626980426e-14,
                2.842170943040401e-14,
                6.0279121065570065e-22,
                1
            ],
            "translation" : [
                1.9889227221290325e-15,
                6.691136360168457,
                -6.87737156113144e-08
            ]
        },
        {
            "children" : [
                3
            ],
            "name" : "3",
            "rotation" : [
                -1.2789769243681803e-13,
                -1.3500311979441904e-13,
                -1.938645187843988e-21,
                1
            ],
            "translation" : [
                -1.162970476756113e-14,
                7.7383928298950195,
                8.302333753817948e-07
            ]
        },
        {
            "children" : [
                4
            ],
            "name" : "2",
            "rotation" : [
                3.552713678800501e-14,
                3.552713678800501e-14,
                3.108357838737726e-22,
                1
            ],
            "translation" : [
                -2.7381331048543546e-14,
                7.807186603546143,
                1.869956804512185e-06
            ]
        },
        {
            "children" : [
                5
            ],
            "name" : "1",
            "rotation" : [
                2.842170943040401e-14,
                3.552713678800501e-14,
                5.270860092518423e-22,
                1
            ],
            "translation" : [
                1.357059098070195e-14,
                6.66703462600708,
                -8.957750310401025e-07
            ]
        },
        {
            "children" : [
                6
            ],
            "name" : "root",
            "rotation" : [
                6.339203650895797e-08,
                7.574776361707336e-09,
                5.088690720462098e-16,
                1
            ]
        },
        {
            "children" : [
                0,
                1,
                2,
                7
            ],
            "name" : "sun_flower_3",
            "translation" : [
                0,
                0,
                57.96129608154297
            ]
        }
    ],
    "materials" : [
        {
            "doubleSided" : true,
            "name" : "sunflower",
            "pbrMetallicRoughness" : {
                "baseColorTexture" : {
                    "index" : 0
                },
                "metallicFactor" : 0
            }
        }
    ],
    "meshes" : [
        {
            "name" : "Cylinder",
            "primitives" : [
                {
                    "attributes" : {
                        "POSITION" : 0,
                        "TEXCOORD_0" : 1,
                        "NORMAL" : 2
                    },
                    "indices" : 3,
                    "material" : 0
                }
            ]
        },
        {
            "name" : "Cylinder.001",
            "primitives" : [
                {
                    "attributes" : {
                        "POSITION" : 4,
                        "TEXCOORD_0" : 5,
                        "NORMAL" : 6
                    },
                    "indices" : 3,
                    "material" : 0
                }
            ]
        },
        {
            "name" : "Cylinder.008",
            "primitives" : [
                {
                    "attributes" : {
                        "POSITION" : 7,
                        "TEXCOORD_0" : 8,
                        "NORMAL" : 9
                    },
                    "indices" : 10
                }
            ]
        }
    ],
    "textures" : [
        {
            "sampler" : 0,
            "source" : 0
        }
    ],
    "images" : [
        {
            "bufferView" : 4,
            "mimeType" : "image/png",
            "name" : "sunflower_albedo"
        }
    ],
    "accessors" : [
        {
            "bufferView" : 0,
            "componentType" : 5126,
            "count" : 7518,
            "max" : [
                14.243263244628906,
                32.099761962890625,
                9.090417861938477
            ],
            "min" : [
                -4.333557605743408,
                -1,
                -10.850786209106445
            ],
            "type" : "VEC3"
        },
        {
            "bufferView" : 1,
            "componentType" : 5126,
            "count" : 7518,
            "type" : "VEC2"
        },
        {
            "bufferView" : 2,
            "componentType" : 5126,
            "count" : 7518,
            "type" : "VEC3"
        },
        {
            "bufferView" : 3,
            "componentType" : 5123,
            "count" : 38508,
            "type" : "SCALAR"
        },
        {
            "bufferView" : 5,
            "componentType" : 5126,
            "count" : 7518,
            "max" : [
                14.243263244628906,
                32.099761962890625,
                9.090417861938477
            ],
            "min" : [
                -4.333557605743408,
                -1,
                -10.850786209106445
            ],
            "type" : "VEC3"
        },
        {
            "bufferView" : 6,
            "componentType" : 5126,
            "count" : 7518,
            "type" : "VEC2"
        },
        {
            "bufferView" : 7,
            "componentType" : 5126,
            "count" : 7518,
            "type" : "VEC3"
        },
        {
            "bufferView" : 8,
            "componentType" : 5126,
            "count" : 248,
            "max" : [
                1,
                1,
                1
            ],
            "min" : [
                -1,
                -1,
                -1
            ],
            "type" : "VEC3"
        },
        {
            "bufferView" : 9,
            "componentType" : 5126,
            "count" : 248,
            "type" : "VEC2"
        },
        {
            "bufferView" : 10,
            "componentType" : 5126,
            "count" : 248,
            "type" : "VEC3"
        },
        {
            "bufferView" : 11,
            "componentType" : 5123,
            "count" : 528,
            "type" : "SCALAR"
        }
    ],
    "bufferViews" : [
        {
            "buffer" : 0,
            "byteLength" : 90216,
            "byteOffset" : 0,
            "target" : 34962
        },
        {
            "buffer" : 0,
            "byteLength" : 60144,
            "byteOffset" : 90216,
            "target" : 34962
        },
        {
            "buffer" : 0,
            "byteLength" : 90216,
            "byteOffset" : 150360,
            "target" : 34962
        },
        {
            "buffer" : 0,
            "byteLength" : 77016,
            "byteOffset" : 240576,
            "target" : 34963
        },
        {
            "buffer" : 0,
            "byteLength" : 189639,
            "byteOffset" : 317592
        },
        {
            "buffer" : 0,
            "byteLength" : 90216,
            "byteOffset" : 507232,
            "target" : 34962
        },
        {
            "buffer" : 0,
            "byteLength" : 60144,
            "byteOffset" : 597448,
            "target" : 34962
        },
        {
            "buffer" : 0,
            "byteLength" : 90216,
            "byteOffset" : 657592,
            "target" : 34962
        },
        {
            "buffer" : 0,
            "byteLength" : 2976,
            "byteOffset" : 747808,
            "target" : 34962
        },
        {
            "buffer" : 0,
            "byteLength" : 1984,
            "byteOffset" : 750784,
            "target" : 34962
        },
        {
            "buffer" : 0,
            "byteLength" : 2976,
            "byteOffset" : 752768,
            "target" : 34962
        },
        {
            "buffer" : 0,
            "byteLength" : 1056,
            "byteOffset" : 755744,
            "target" : 34963
        }
    ],
    "samplers" : [
        {
            "magFilter" : 9729,
            "minFilter" : 9987
        }
    ],
    "buffers" : [
        {
            "byteLength" : 756800,
            "uri" : "data:application/octet-stream;base64,"
        }
    ]
}
