{
    "asset" : {
        "generator" : "Khronos glTF Blender I/O v1.5.17",
        "version" : "2.0"
    },
    "scene" : 0,
    "scenes" : [
        {
            "name" : "Scene",
            "nodes" : [
                3,
                4
            ]
        }
    ],
    "nodes" : [
        {
            "name" : "bendy_bone",
            "scale" : [
                1,
                1.0000001192092896,
                1
            ]
        },
        {
            "name" : "end",
            "translation" : [
                0,
                4.002635955810547,
                0
            ]
        },
        {
            "name" : "start",
            "rotation" : [
                1,
                0,
                0,
                0
            ]
        },
        {
            "children" : [
                0,
                1,
                2
            ],
            "name" : "mushroom_rig",
            "rotation" : [
                0,
                0.7236927151679993,
                0,
                0.6901223659515381
            ],
            "scale" : [
                0.061193179339170456,
                0.061193179339170456,
                0.061193179339170456
            ],
            "translation" : [
                0.8312519788742065,
                -0.3609391450881958,
                -0.08377114683389664
            ]
        },
        {
            "mesh" : 0,
            "name" : "leaves_big_inside"
        }
    ],
    "materials" : [
        {
            "doubleSided" : true,
            "name" : "BigLeaf.001",
            "pbrMetallicRoughness" : {
                "baseColorTexture" : {
                    "index" : 0
                },
                "metallicFactor" : 0
            }
        }
    ],
    "meshes" : [
        {
            "name" : "Plane.005",
            "primitives" : [
                {
                    "attributes" : {
                        "POSITION" : 0,
                        "NORMAL" : 1,
                        "TEXCOORD_0" : 2
                    },
                    "indices" : 3,
                    "material" : 0
                }
            ]
        }
    ],
    "textures" : [
        {
            "sampler" : 0,
            "source" : 0
        }
    ],
    "images" : [
        {
            "bufferView" : 4,
            "mimeType" : "image/png",
            "name" : "DefaultMaterial_Base_color_own"
        }
    ],
    "accessors" : [
        {
            "bufferView" : 0,
            "componentType" : 5126,
            "count" : 13442,
            "max" : [
                -0.034790992736816406,
                2.390990734100342,
                -0.20820176601409912
            ],
            "min" : [
                -0.6909690499305725,
                0.3214857578277588,
                -0.8389880657196045
            ],
            "type" : "VEC3"
        },
        {
            "bufferView" : 1,
            "componentType" : 5126,
            "count" : 13442,
            "type" : "VEC3"
        },
        {
            "bufferView" : 2,
            "componentType" : 5126,
            "count" : 13442,
            "type" : "VEC2"
        },
        {
            "bufferView" : 3,
            "componentType" : 5123,
            "count" : 62088,
            "type" : "SCALAR"
        }
    ],
    "bufferViews" : [
        {
            "buffer" : 0,
            "byteLength" : 161304,
            "byteOffset" : 0
        },
        {
            "buffer" : 0,
            "byteLength" : 161304,
            "byteOffset" : 161304
        },
        {
            "buffer" : 0,
            "byteLength" : 107536,
            "byteOffset" : 322608
        },
        {
            "buffer" : 0,
            "byteLength" : 124176,
            "byteOffset" : 430144
        },
        {
            "buffer" : 0,
            "byteLength" : 2365956,
            "byteOffset" : 554320
        }
    ],
    "samplers" : [
        {
            "magFilter" : 9729,
            "minFilter" : 9987
        }
    ],
    "buffers" : [
        {
            "byteLength" : 2920276,
            "uri" : "data:application/octet-stream;base64,"
        }
    ]
}
