{
    "asset" : {
        "generator" : "Khronos glTF Blender I/O v1.5.17",
        "version" : "2.0"
    },
    "scene" : 0,
    "scenes" : [
        {
            "name" : "Scene",
            "nodes" : [
                0,
                4
            ]
        }
    ],
    "nodes" : [
        {
            "mesh" : 0,
            "name" : "3D_mosspad_1_first Try"
        },
        {
            "name" : "bendy_bone",
            "scale" : [
                1,
                1.0000001192092896,
                1
            ]
        },
        {
            "name" : "end",
            "translation" : [
                0,
                4.002635955810547,
                0
            ]
        },
        {
            "name" : "start",
            "rotation" : [
                1,
                0,
                0,
                0
            ]
        },
        {
            "children" : [
                1,
                2,
                3
            ],
            "name" : "mushroom_rig",
            "rotation" : [
                0,
                0.7236927151679993,
                0,
                0.6901223659515381
            ],
            "scale" : [
                0.061193179339170456,
                0.061193179339170456,
                0.061193179339170456
            ],
            "translation" : [
                0.8312519788742065,
                -0.3609391450881958,
                -0.08377114683389664
            ]
        }
    ],
    "materials" : [
        {
            "alphaMode" : "BLEND",
            "doubleSided" : true,
            "name" : "3D_mosspad_1",
            "pbrMetallicRoughness" : {
                "baseColorTexture" : {
                    "index" : 0
                },
                "metallicFactor" : 0,
                "roughnessFactor" : 0.5
            }
        },
        {
            "alphaMode" : "BLEND",
            "doubleSided" : true,
            "name" : "Mosscard_1",
            "pbrMetallicRoughness" : {
                "baseColorTexture" : {
                    "index" : 1
                },
                "metallicFactor" : 0,
                "roughnessFactor" : 0.5
            }
        }
    ],
    "meshes" : [
        {
            "name" : "3D_mosspad_1.007",
            "primitives" : [
                {
                    "attributes" : {
                        "POSITION" : 0,
                        "NORMAL" : 1,
                        "TEXCOORD_0" : 2
                    },
                    "indices" : 3,
                    "material" : 0
                },
                {
                    "attributes" : {
                        "POSITION" : 4,
                        "NORMAL" : 5,
                        "TEXCOORD_0" : 6
                    },
                    "indices" : 7,
                    "material" : 1
                }
            ]
        }
    ],
    "textures" : [
        {
            "sampler" : 0,
            "source" : 0
        },
        {
            "sampler" : 0,
            "source" : 1
        }
    ],
    "images" : [
        {
            "bufferView" : 4,
            "mimeType" : "image/png",
            "name" : "3D_mosspad_1"
        },
        {
            "bufferView" : 9,
            "mimeType" : "image/png",
            "name" : "Mosscard_1"
        }
    ],
    "accessors" : [
        {
            "bufferView" : 0,
            "componentType" : 5126,
            "count" : 288,
            "max" : [
                -2.1187989711761475,
                1.2423253059387207,
                -0.017286092042922974
            ],
            "min" : [
                -2.575908899307251,
                1.0314648151397705,
                -0.49005264043807983
            ],
            "type" : "VEC3"
        },
        {
            "bufferView" : 1,
            "componentType" : 5126,
            "count" : 288,
            "type" : "VEC3"
        },
        {
            "bufferView" : 2,
            "componentType" : 5126,
            "count" : 288,
            "type" : "VEC2"
        },
        {
            "bufferView" : 3,
            "componentType" : 5123,
            "count" : 1452,
            "type" : "SCALAR"
        },
        {
            "bufferView" : 5,
            "componentType" : 5126,
            "count" : 180,
            "max" : [
                -2.2290947437286377,
                1.3426899909973145,
                -0.07838919758796692
            ],
            "min" : [
                -2.5006103515625,
                1.1615636348724365,
                -0.49602824449539185
            ],
            "type" : "VEC3"
        },
        {
            "bufferView" : 6,
            "componentType" : 5126,
            "count" : 180,
            "type" : "VEC3"
        },
        {
            "bufferView" : 7,
            "componentType" : 5126,
            "count" : 180,
            "type" : "VEC2"
        },
        {
            "bufferView" : 8,
            "componentType" : 5123,
            "count" : 768,
            "type" : "SCALAR"
        }
    ],
    "bufferViews" : [
        {
            "buffer" : 0,
            "byteLength" : 3456,
            "byteOffset" : 0
        },
        {
            "buffer" : 0,
            "byteLength" : 3456,
            "byteOffset" : 3456
        },
        {
            "buffer" : 0,
            "byteLength" : 2304,
            "byteOffset" : 6912
        },
        {
            "buffer" : 0,
            "byteLength" : 2904,
            "byteOffset" : 9216
        },
        {
            "buffer" : 0,
            "byteLength" : 1386537,
            "byteOffset" : 12120
        },
        {
            "buffer" : 0,
            "byteLength" : 2160,
            "byteOffset" : 1398660
        },
        {
            "buffer" : 0,
            "byteLength" : 2160,
            "byteOffset" : 1400820
        },
        {
            "buffer" : 0,
            "byteLength" : 1440,
            "byteOffset" : 1402980
        },
        {
            "buffer" : 0,
            "byteLength" : 1536,
            "byteOffset" : 1404420
        },
        {
            "buffer" : 0,
            "byteLength" : 121889,
            "byteOffset" : 1405956
        }
    ],
    "samplers" : [
        {
            "magFilter" : 9729,
            "minFilter" : 9987,
            "wrapS" : 33071,
            "wrapT" : 33071
        }
    ],
    "buffers" : [
        {
            "byteLength" : 1527848,
            "uri" : "data:application/octet-stream;base64,"
        }
    ]
}
