{
    "asset" : {
        "generator" : "Khronos glTF Blender I/O v1.5.17",
        "version" : "2.0"
    },
    "scene" : 0,
    "scenes" : [
        {
            "name" : "Scene",
            "nodes" : [
                3,
                4
            ]
        }
    ],
    "nodes" : [
        {
            "name" : "bendy_bone",
            "scale" : [
                1,
                1.0000001192092896,
                1
            ]
        },
        {
            "name" : "end",
            "translation" : [
                0,
                4.002635955810547,
                0
            ]
        },
        {
            "name" : "start",
            "rotation" : [
                1,
                0,
                0,
                0
            ]
        },
        {
            "children" : [
                0,
                1,
                2
            ],
            "name" : "mushroom_rig",
            "rotation" : [
                0,
                0.7236927151679993,
                0,
                0.6901223659515381
            ],
            "scale" : [
                0.061193179339170456,
                0.061193179339170456,
                0.061193179339170456
            ],
            "translation" : [
                0.8312519788742065,
                -0.3609391450881958,
                -0.08377114683389664
            ]
        },
        {
            "mesh" : 0,
            "name" : "outside_moss_branch_medium_1_lo"
        }
    ],
    "materials" : [
        {
            "doubleSided" : true,
            "name" : "outside_moss_branch_medium_1",
            "normalTexture" : {
                "index" : 0
            },
            "pbrMetallicRoughness" : {
                "baseColorTexture" : {
                    "index" : 1
                },
                "metallicFactor" : 0
            }
        }
    ],
    "meshes" : [
        {
            "name" : "Cylinder.005",
            "primitives" : [
                {
                    "attributes" : {
                        "POSITION" : 0,
                        "NORMAL" : 1,
                        "TEXCOORD_0" : 2
                    },
                    "indices" : 3,
                    "material" : 0
                }
            ]
        }
    ],
    "textures" : [
        {
            "sampler" : 0,
            "source" : 0
        },
        {
            "sampler" : 0,
            "source" : 1
        }
    ],
    "images" : [
        {
            "bufferView" : 4,
            "mimeType" : "image/png",
            "name" : "outside_moss_branch_medium_1_Normal_DirectX"
        },
        {
            "bufferView" : 5,
            "mimeType" : "image/png",
            "name" : "outside_moss_branch_medium_1_Base_color"
        }
    ],
    "accessors" : [
        {
            "bufferView" : 0,
            "componentType" : 5126,
            "count" : 790,
            "max" : [
                -2.2954885959625244,
                1.2018952369689941,
                -0.15609365701675415
            ],
            "min" : [
                -2.378458023071289,
                0.9182846546173096,
                -0.37064558267593384
            ],
            "type" : "VEC3"
        },
        {
            "bufferView" : 1,
            "componentType" : 5126,
            "count" : 790,
            "type" : "VEC3"
        },
        {
            "bufferView" : 2,
            "componentType" : 5126,
            "count" : 790,
            "type" : "VEC2"
        },
        {
            "bufferView" : 3,
            "componentType" : 5123,
            "count" : 3330,
            "type" : "SCALAR"
        }
    ],
    "bufferViews" : [
        {
            "buffer" : 0,
            "byteLength" : 9480,
            "byteOffset" : 0
        },
        {
            "buffer" : 0,
            "byteLength" : 9480,
            "byteOffset" : 9480
        },
        {
            "buffer" : 0,
            "byteLength" : 6320,
            "byteOffset" : 18960
        },
        {
            "buffer" : 0,
            "byteLength" : 6660,
            "byteOffset" : 25280
        },
        {
            "buffer" : 0,
            "byteLength" : 2436736,
            "byteOffset" : 31940
        },
        {
            "buffer" : 0,
            "byteLength" : 590333,
            "byteOffset" : 2468676
        }
    ],
    "samplers" : [
        {
            "magFilter" : 9729,
            "minFilter" : 9987
        }
    ],
    "buffers" : [
        {
            "byteLength" : 3059012,
            "uri" : "data:application/octet-stream;base64,"
        }
    ]
}
