{
    "asset" : {
        "generator" : "Khronos glTF Blender I/O v1.5.17",
        "version" : "2.0"
    },
    "scene" : 0,
    "scenes" : [
        {
            "name" : "Scene",
            "nodes" : [
                0,
                4
            ]
        }
    ],
    "nodes" : [
        {
            "mesh" : 0,
            "name" : "moss_hanging"
        },
        {
            "name" : "bendy_bone",
            "scale" : [
                1,
                1.0000001192092896,
                1
            ]
        },
        {
            "name" : "end",
            "translation" : [
                0,
                4.002635955810547,
                0
            ]
        },
        {
            "name" : "start",
            "rotation" : [
                1,
                0,
                0,
                0
            ]
        },
        {
            "children" : [
                1,
                2,
                3
            ],
            "name" : "mushroom_rig",
            "rotation" : [
                0,
                0.7236927151679993,
                0,
                0.6901223659515381
            ],
            "scale" : [
                0.061193179339170456,
                0.061193179339170456,
                0.061193179339170456
            ],
            "translation" : [
                0.8312519788742065,
                -0.3609391450881958,
                -0.08377114683389664
            ]
        }
    ],
    "materials" : [
        {
            "alphaMode" : "BLEND",
            "doubleSided" : true,
            "name" : "mossgirlande",
            "pbrMetallicRoughness" : {
                "baseColorTexture" : {
                    "index" : 0
                },
                "metallicFactor" : 0,
                "roughnessFactor" : 0.5
            }
        }
    ],
    "meshes" : [
        {
            "name" : "mossgirlande",
            "primitives" : [
                {
                    "attributes" : {
                        "POSITION" : 0,
                        "NORMAL" : 1,
                        "TEXCOORD_0" : 2
                    },
                    "indices" : 3,
                    "material" : 0
                }
            ]
        }
    ],
    "textures" : [
        {
            "sampler" : 0,
            "source" : 0
        }
    ],
    "images" : [
        {
            "bufferView" : 4,
            "mimeType" : "image/png",
            "name" : "mossgirlande"
        }
    ],
    "accessors" : [
        {
            "bufferView" : 0,
            "componentType" : 5126,
            "count" : 152,
            "max" : [
                -0.6119860410690308,
                1.0528160333633423,
                0.010805368423461914
            ],
            "min" : [
                -0.9127496480941772,
                0.6228816509246826,
                -0.18613725900650024
            ],
            "type" : "VEC3"
        },
        {
            "bufferView" : 1,
            "componentType" : 5126,
            "count" : 152,
            "type" : "VEC3"
        },
        {
            "bufferView" : 2,
            "componentType" : 5126,
            "count" : 152,
            "type" : "VEC2"
        },
        {
            "bufferView" : 3,
            "componentType" : 5123,
            "count" : 228,
            "type" : "SCALAR"
        }
    ],
    "bufferViews" : [
        {
            "buffer" : 0,
            "byteLength" : 1824,
            "byteOffset" : 0
        },
        {
            "buffer" : 0,
            "byteLength" : 1824,
            "byteOffset" : 1824
        },
        {
            "buffer" : 0,
            "byteLength" : 1216,
            "byteOffset" : 3648
        },
        {
            "buffer" : 0,
            "byteLength" : 456,
            "byteOffset" : 4864
        },
        {
            "buffer" : 0,
            "byteLength" : 100704,
            "byteOffset" : 5320
        }
    ],
    "samplers" : [
        {
            "magFilter" : 9729,
            "minFilter" : 9987,
            "wrapS" : 33071,
            "wrapT" : 33071
        }
    ],
    "buffers" : [
        {
            "byteLength" : 106024,
            "uri" : "data:application/octet-stream;base64,"
        }
    ]
}
