{
    "asset" : {
        "generator" : "Khronos glTF Blender I/O v1.5.17",
        "version" : "2.0"
    },
    "scene" : 0,
    "scenes" : [
        {
            "name" : "Scene",
            "nodes" : [
                3,
                4
            ]
        }
    ],
    "nodes" : [
        {
            "name" : "bendy_bone",
            "scale" : [
                1,
                1.0000001192092896,
                1
            ]
        },
        {
            "name" : "end",
            "translation" : [
                0,
                4.002635955810547,
                0
            ]
        },
        {
            "name" : "start",
            "rotation" : [
                1,
                0,
                0,
                0
            ]
        },
        {
            "children" : [
                0,
                1,
                2
            ],
            "name" : "mushroom_rig",
            "rotation" : [
                0,
                0.7236927151679993,
                0,
                0.6901223659515381
            ],
            "scale" : [
                0.061193179339170456,
                0.061193179339170456,
                0.061193179339170456
            ],
            "translation" : [
                0.8312519788742065,
                -0.3609391450881958,
                -0.08377114683389664
            ]
        },
        {
            "mesh" : 0,
            "name" : "mushroom_medium_2"
        }
    ],
    "materials" : [
        {
            "doubleSided" : true,
            "name" : "Material",
            "pbrMetallicRoughness" : {
                "baseColorTexture" : {
                    "index" : 0
                },
                "metallicFactor" : 0
            }
        }
    ],
    "meshes" : [
        {
            "name" : "Cube.003",
            "primitives" : [
                {
                    "attributes" : {
                        "POSITION" : 0,
                        "NORMAL" : 1,
                        "TEXCOORD_0" : 2
                    },
                    "indices" : 3,
                    "material" : 0
                }
            ]
        }
    ],
    "textures" : [
        {
            "sampler" : 0,
            "source" : 0
        }
    ],
    "images" : [
        {
            "bufferView" : 4,
            "mimeType" : "image/png",
            "name" : "earth_mushroom_2_albedo"
        }
    ],
    "accessors" : [
        {
            "bufferView" : 0,
            "componentType" : 5126,
            "count" : 708,
            "max" : [
                0.9958844780921936,
                0.8631852865219116,
                0.1523301601409912
            ],
            "min" : [
                0.7304239273071289,
                0.6434106826782227,
                -0.22960267961025238
            ],
            "type" : "VEC3"
        },
        {
            "bufferView" : 1,
            "componentType" : 5126,
            "count" : 708,
            "type" : "VEC3"
        },
        {
            "bufferView" : 2,
            "componentType" : 5126,
            "count" : 708,
            "type" : "VEC2"
        },
        {
            "bufferView" : 3,
            "componentType" : 5123,
            "count" : 3396,
            "type" : "SCALAR"
        }
    ],
    "bufferViews" : [
        {
            "buffer" : 0,
            "byteLength" : 8496,
            "byteOffset" : 0
        },
        {
            "buffer" : 0,
            "byteLength" : 8496,
            "byteOffset" : 8496
        },
        {
            "buffer" : 0,
            "byteLength" : 5664,
            "byteOffset" : 16992
        },
        {
            "buffer" : 0,
            "byteLength" : 6792,
            "byteOffset" : 22656
        },
        {
            "buffer" : 0,
            "byteLength" : 208874,
            "byteOffset" : 29448
        }
    ],
    "samplers" : [
        {
            "magFilter" : 9729,
            "minFilter" : 9987
        }
    ],
    "buffers" : [
        {
            "byteLength" : 238324,
            "uri" : "data:application/octet-stream;base64,"
        }
    ]
}
