# Blender 3.4.1
# www.blender.org
o leaf_4_collider
v 4.703511 -0.259000 4.100808
v 4.437125 0.123368 4.087653
v 4.622564 -0.325807 -4.519814
v 4.568890 0.118592 -4.395094
v 5.494292 -0.079554 6.240859
v 5.413730 0.382248 6.229231
v 5.317066 0.000781 -6.233024
v 5.266626 0.462584 -6.243706
v 18.345490 1.228133 -0.185856
v 17.427441 2.975225 1.311767
v 17.327061 2.975225 -2.289697
v 17.465443 2.513423 -2.276870
v 17.327888 2.513423 1.351343
v 4.928700 -0.143477 -2.306263
v 4.964197 -0.125267 2.252022
v 4.692121 0.254182 2.238867
v 4.796957 0.264740 -2.330392
v 5.464798 -0.131091 2.444912
v 5.207299 -0.125002 -2.347586
v 5.151423 0.336801 -2.358268
v 5.388577 0.330712 2.433284
v 17.930225 1.020500 -0.154796
v 17.923035 1.039586 -0.547234
v 18.338455 1.246800 -0.578295
v 17.372261 2.535777 -1.399594
v 17.259892 2.585094 0.221312
v 17.281248 3.015066 0.460707
v 17.217720 2.997580 -1.467717
v 11.633437 3.039743 -6.254074
v 13.497825 3.349685 -4.682945
v 13.413494 2.823356 -4.695335
v 11.513946 2.577940 -6.241141
v 11.600413 2.121535 5.425289
v 13.825932 2.823356 3.904315
v 11.584765 2.558922 5.475665
v 13.885105 3.285159 3.889276
v 11.348177 2.208519 2.106764
v 13.826523 2.823356 1.793291
v 13.596571 2.823356 -2.798461
v 11.141245 2.281007 -2.693621
v 11.261867 2.742809 -2.724598
v 13.671740 3.303764 -2.677072
v 13.884771 3.285159 1.638759
v 11.463230 2.670321 2.075855
v 7.349590 1.291184 -7.016377
v 9.491492 2.082330 -6.752630
v 9.519602 1.620527 -6.717914
v 7.323617 0.829381 -6.998731
v 6.952229 0.427918 6.974375
v 9.155576 1.333987 6.730751
v 6.984106 0.889721 6.976021
v 9.138854 1.795790 6.732453
v 6.835743 0.453897 2.358972
v 8.960396 1.176656 2.736719
v 8.724631 1.198525 -2.057410
v 6.588426 0.493838 -2.432631
v 6.668428 0.955641 -2.447110
v 8.719755 1.660328 -2.075287
v 8.951302 1.638459 2.718766
v 6.893064 0.915700 2.342423
v 15.833031 2.999729 -3.341992
v 15.800835 3.461532 -3.342970
v 15.845365 3.461532 -2.282643
v 15.907425 2.999729 -2.420733
v 15.859350 3.461532 2.699481
v 15.779988 2.999729 2.726788
v 15.741781 2.908824 1.164737
v 15.723179 3.370627 0.867181
vn -0.9643 -0.2260 0.1378
vn -0.9259 -0.0594 -0.3731
vn -0.3697 0.9290 0.0159
vn -0.8563 -0.3405 0.3883
vn 0.1480 -0.9889 -0.0083
vn -0.2039 0.9790 0.0054
vn -0.3376 0.9412 0.0082
vn 0.3609 -0.9326 -0.0034
vn 0.4722 -0.0340 0.8808
vn 0.3993 -0.9165 -0.0254
vn 0.8338 0.5393 -0.1180
vn 0.6493 -0.0709 0.7572
vn -0.3689 0.9292 0.0222
vn 0.4191 -0.9077 -0.0199
vn 0.7125 -0.3355 -0.6163
vn 0.5923 -0.3805 0.7102
vn -0.9176 -0.3877 -0.0876
vn 0.3905 -0.9205 -0.0112
vn -0.2437 -0.9697 0.0165
vn 0.3118 0.9501 -0.0005
vn -0.3351 0.9422 0.0018
vn -0.3384 -0.0378 -0.9402
vn -0.4355 -0.0132 0.9001
vn -0.9162 -0.3997 0.0298
vn -0.9257 -0.3759 -0.0427
vn 0.4431 -0.8950 -0.0511
vn -0.2987 -0.9543 0.0087
vn 0.2671 0.9635 0.0170
vn 0.2365 0.9707 -0.0434
vn -0.2547 -0.9668 -0.0213
vn 0.8164 0.5699 0.0931
vn 0.8513 0.5240 -0.0256
vn -0.3985 0.9168 0.0248
vn -0.3801 0.9246 0.0262
vn 0.3480 -0.9374 -0.0123
vn 0.3966 -0.9176 -0.0273
vn -0.3620 0.9322 0.0037
vn -0.1406 0.9901 0.0037
vn 0.3311 -0.9436 -0.0019
vn 0.0161 -0.9999 0.0008
vn -0.8045 -0.5739 -0.1533
vn -0.8897 -0.4564 -0.0064
vn 0.6437 -0.1332 -0.7536
vn 0.1928 -0.9801 -0.0467
vn -0.2633 0.9644 0.0247
vn 0.5778 -0.0600 0.8140
vn 0.2595 -0.9654 -0.0275
vn 0.2269 -0.9738 -0.0181
vn -0.2184 0.9744 0.0526
vn -0.2349 0.9718 0.0204
vn 0.5743 0.0939 -0.8132
vn 0.1443 -0.0557 -0.9880
vn 0.3294 -0.9439 -0.0229
vn -0.3605 0.9327 -0.0026
vn 0.1133 -0.0055 0.9935
vn 0.3522 -0.9359 0.0015
vn 0.3211 -0.9468 -0.0223
vn -0.3391 0.9405 0.0238
vn -0.3316 0.9432 0.0219
vn 0.2618 -0.0755 -0.9621
vn 0.4961 -0.0161 -0.8681
vn 0.0612 -0.9981 -0.0116
vn -0.0785 0.9967 -0.0196
vn -0.0591 0.9981 0.0154
vn 0.0769 -0.9970 -0.0070
vn -0.0677 0.9975 0.0198
vn 0.0786 -0.9966 0.0239
vn 0.5183 -0.0386 0.8543
vt 0.375000 0.913049
vt 0.125000 0.696879
vt 0.375000 0.053121
vt 0.640417 0.912819
vt 0.875000 0.696879
vt 0.625000 0.053121
vt 0.375000 0.212272
vt 0.125000 0.537728
vt 0.625000 0.212272
vt 0.875000 0.537728
vt 0.375000 0.750000
vt 0.625000 0.750000
vt 0.375000 0.500000
vt 0.625000 0.500000
vt 0.625000 0.639428
vt 0.625000 0.750000
vt 0.625000 0.500000
vt 0.512165 0.500000
vt 0.375000 0.750000
vt 0.125000 0.583333
vt 0.375000 0.166667
vt 0.125000 0.666667
vt 0.375000 0.083333
vt 0.875000 0.666667
vt 0.625000 0.083333
vt 0.804377 0.583333
vt 0.600115 0.166516
vt 0.375000 0.666667
vt 0.375000 0.583333
vt 0.625000 0.583333
vt 0.625000 0.666667
vt 0.375000 0.639428
vt 0.375000 0.632603
vt 0.625000 0.632602
vt 0.405589 0.597541
vt 0.375000 0.666667
vt 0.625000 0.699710
vt 0.625000 0.596782
vt 0.625000 0.500000
vt 0.625000 0.497668
vt 0.414272 0.500000
vt 0.375000 0.500000
vt 0.375000 0.750000
vt 0.375000 0.750000
vt 0.625000 0.750000
vt 0.625000 0.750000
vt 0.375000 0.666667
vt 0.375000 0.666667
vt 0.375000 0.583333
vt 0.375000 0.583333
vt 0.625000 0.583333
vt 0.625000 0.586010
vt 0.625000 0.664546
vt 0.625000 0.666667
vt 0.625000 0.500000
vt 0.625000 0.500000
vt 0.375000 0.500000
vt 0.375000 0.500000
vt 0.375000 0.750000
vt 0.375000 0.750000
vt 0.625000 0.750000
vt 0.625000 0.750000
vt 0.375000 0.666667
vt 0.375000 0.666667
vt 0.375000 0.583333
vt 0.375000 0.583333
vt 0.625000 0.583333
vt 0.625000 0.583333
vt 0.625000 0.666667
vt 0.625000 0.666667
vt 0.463219 0.500000
vt 0.625000 0.500000
vt 0.625000 0.593559
vt 0.375000 0.590644
vt 0.625000 0.750000
vt 0.375000 0.750000
vt 0.375000 0.666667
vt 0.625000 0.662038
s 0
f 14/21/1 17/27/1 4/9/1 3/7/1
f 3/7/2 4/9/2 8/14/2 7/13/2
f 8/14/3 20/30/3 57/67/3 45/55/3
f 5/11/4 6/12/4 2/4/4 1/1/4
f 15/22/5 18/28/5 5/11/5 1/2/5
f 21/31/6 16/24/6 2/5/6 6/12/6
f 59/69/7 52/62/7 35/45/7 44/54/7
f 5/11/8 18/28/8 53/63/8 49/59/8
f 52/62/9 50/60/9 33/43/9 35/45/9
f 18/28/10 19/29/10 56/66/10 53/63/10
f 27/37/11 10/16/11 9/15/11
f 65/75/12 66/76/12 13/19/12 10/16/12
f 20/30/13 21/31/13 60/70/13 57/67/13
f 55/65/14 47/57/14 32/42/14 40/50/14
f 12/18/15 11/17/15 24/34/15 23/33/15
f 10/16/16 13/19/16 22/32/16 9/15/16
f 25/35/17 12/18/17 23/33/17
f 19/29/18 7/13/18 48/58/18 56/66/18
f 66/76/19 67/77/19 26/36/19 13/19/19
f 62/72/20 63/73/20 28/38/20 11/17/20
f 21/31/21 6/12/21 51/61/21 60/70/21
f 7/13/22 8/14/22 45/55/22 48/58/22
f 6/12/23 5/11/23 49/59/23 51/61/23
f 13/19/24 26/36/24 22/32/24
f 26/36/25 25/35/25 23/33/25 22/32/25
f 23/33/26 24/34/26 9/15/26 22/32/26
f 64/74/27 61/71/27 12/18/27 25/35/27
f 63/73/28 68/78/28 27/37/28 28/38/28
f 68/78/29 65/75/29 10/16/29 27/37/29
f 67/77/30 64/74/30 25/35/30 26/36/30
f 11/17/31 28/38/31 24/34/31
f 28/38/32 27/37/32 9/15/32 24/34/32
f 46/56/33 58/68/33 41/51/33 29/39/33
f 58/68/34 59/69/34 44/54/34 41/51/34
f 50/60/35 54/64/35 37/47/35 33/43/35
f 54/64/36 55/65/36 40/50/36 37/47/36
f 8/14/37 4/10/37 17/26/37 20/30/37
f 20/30/38 17/26/38 16/24/38 21/31/38
f 3/8/39 7/13/39 19/29/39 14/20/39
f 14/20/40 19/29/40 18/28/40 15/22/40
f 1/3/41 2/6/41 16/25/41 15/23/41
f 15/23/42 16/25/42 17/27/42 14/21/42
f 30/40/43 31/41/43 32/42/43 29/39/43
f 40/50/44 32/42/44 31/41/44 39/49/44
f 44/54/45 35/45/45 36/46/45 43/53/45
f 35/45/46 33/43/46 34/44/46 36/46/46
f 33/43/47 37/47/47 38/48/47 34/44/47
f 37/47/48 40/50/48 39/49/48 38/48/48
f 29/39/49 41/51/49 42/52/49 30/40/49
f 41/51/50 44/54/50 43/53/50 42/52/50
f 61/71/51 62/72/51 11/17/51 12/18/51
f 46/56/52 47/57/52 48/58/52 45/55/52
f 56/66/53 48/58/53 47/57/53 55/65/53
f 60/70/54 51/61/54 52/62/54 59/69/54
f 51/61/55 49/59/55 50/60/55 52/62/55
f 49/59/56 53/63/56 54/64/56 50/60/56
f 53/63/57 56/66/57 55/65/57 54/64/57
f 45/55/58 57/67/58 58/68/58 46/56/58
f 57/67/59 60/70/59 59/69/59 58/68/59
f 47/57/60 46/56/60 29/39/60 32/42/60
f 31/41/61 30/40/61 62/72/61 61/71/61
f 38/48/62 39/49/62 64/74/62 67/77/62
f 43/53/63 36/46/63 65/75/63 68/78/63
f 42/52/64 43/53/64 68/78/64 63/73/64
f 39/49/65 31/41/65 61/71/65 64/74/65
f 30/40/66 42/52/66 63/73/66 62/72/66
f 34/44/67 38/48/67 67/77/67 66/76/67
f 36/46/68 34/44/68 66/76/68 65/75/68
