# Blender 3.4.1
# www.blender.org
o leaf_1_collider
v 4.390269 1.840444 4.100808
v 4.197135 2.505553 4.087653
v 3.826715 1.499038 -4.887074
v 3.633581 2.164147 -4.900229
v 5.755326 2.268928 5.710330
v 5.574582 2.871627 5.698702
v 5.073700 1.816604 -7.138787
v 4.907865 2.369929 -7.149469
v 19.370731 -0.308177 0.209218
v 16.526089 1.574742 2.999681
v 16.115292 1.813032 -3.169769
v 16.122496 1.245374 -3.156943
v 16.291584 1.185499 3.039258
v 4.637837 1.785615 -2.306262
v 4.676861 1.887100 2.252022
v 4.483727 2.552208 2.238867
v 4.444703 2.450723 -2.319417
v 5.560815 2.147572 2.443614
v 5.317258 1.982088 -2.347586
v 5.151423 2.535413 -2.358267
v 5.380071 2.750271 2.431986
v 19.218349 -0.983202 0.240279
v 19.198399 -0.996757 -0.152160
v 19.350780 -0.321731 -0.183220
v 16.063393 1.167657 -2.883936
v 16.209093 1.160706 1.909032
v 16.246754 1.675726 1.468453
v 15.981874 1.776163 -2.409022
v 11.322260 3.036398 -6.826827
v 13.541574 2.660383 -5.542342
v 13.397223 2.028426 -5.553213
v 11.181848 2.420758 -6.813894
v 11.517527 2.527609 4.990020
v 13.676439 2.036204 4.107496
v 11.658314 3.150840 4.951469
v 13.812204 2.645128 4.092457
v 11.517429 2.456637 2.095780
v 13.677019 1.990494 1.996472
v 13.465888 1.960092 -2.798462
v 11.298429 2.379344 -2.699767
v 11.442574 3.085042 -2.730745
v 13.615572 2.648755 -2.677422
v 13.811870 2.668668 1.841940
v 11.660892 3.161446 2.064870
v 7.365191 2.849613 -7.398936
v 9.702624 3.063250 -7.232765
v 9.741948 2.521099 -7.198049
v 7.402637 2.336139 -7.381290
v 7.093644 2.650197 6.051331
v 9.357766 2.818318 5.873507
v 7.055206 3.200781 6.052976
v 9.321256 3.353773 5.875209
v 6.898041 2.526577 2.362546
v 9.174857 2.713911 2.228926
v 8.945871 2.584076 -2.564331
v 6.644562 2.364048 -2.428252
v 6.644227 2.814829 -2.442730
v 8.912015 3.195052 -2.582207
v 9.141893 3.325552 2.210972
v 6.880681 3.055265 2.345998
vn -0.9129 -0.2588 0.3157
vn -0.8308 -0.2545 -0.4950
vn -0.1905 0.9814 -0.0225
vn -0.7212 -0.1997 0.6634
vn 0.2789 -0.9601 0.0190
vn -0.2271 0.9737 -0.0183
vn 0.0743 0.9972 -0.0047
vn 0.2716 -0.9622 0.0187
vn 0.3725 -0.0040 0.9280
vn 0.2756 -0.9611 0.0186
vn 0.5243 0.8506 -0.0395
vn 0.3501 -0.0788 0.9334
vn -0.1935 0.9804 -0.0372
vn -0.0799 -0.9968 -0.0038
vn 0.6467 -0.1022 -0.7559
vn 0.6192 -0.1743 0.7657
vn -0.3300 -0.8867 -0.3239
vn 0.2419 -0.9698 0.0320
vn -0.3045 -0.9521 0.0284
vn 0.3202 0.9472 0.0179
vn -0.2057 0.9783 -0.0266
vn -0.0930 -0.0441 -0.9947
vn -0.2309 -0.0355 0.9723
vn -0.5574 -0.8282 0.0588
vn -0.5763 -0.8170 0.0194
vn 0.9742 -0.2218 -0.0419
vn -0.2653 -0.9631 -0.0456
vn 0.3619 0.9321 -0.0109
vn 0.3727 0.9279 0.0030
vn -0.3011 -0.9535 0.0135
vn 0.4642 0.8770 0.1239
vn 0.5341 0.8452 -0.0184
vn 0.0341 0.9993 -0.0180
vn 0.0528 0.9983 -0.0240
vn -0.1141 -0.9930 0.0298
vn -0.0964 -0.9950 0.0260
vn -0.1833 0.9825 -0.0340
vn -0.1710 0.9849 -0.0284
vn 0.2788 -0.9602 0.0190
vn -0.9481 -0.2783 -0.1540
vn -0.9603 -0.2786 0.0144
vn 0.4802 -0.1110 -0.8701
vn -0.1793 -0.9837 -0.0109
vn 0.2275 0.9738 0.0066
vn 0.3658 -0.0417 0.9298
vn -0.2115 -0.9771 0.0228
vn -0.1995 -0.9797 0.0200
vn 0.1849 0.9827 -0.0104
vn 0.2093 0.9777 -0.0194
vn 0.6540 -0.0760 -0.7527
vn 0.0781 -0.0437 -0.9960
vn 0.0867 -0.9960 0.0235
vn -0.0944 0.9954 -0.0189
vn 0.0781 0.0023 0.9969
vn 0.0798 -0.9964 0.0269
vn 0.0901 -0.9956 0.0258
vn -0.1277 0.9914 -0.0301
vn -0.1440 0.9891 -0.0313
vn 0.2472 -0.0614 -0.9670
vt 0.375000 0.913049
vt 0.125000 0.696879
vt 0.375000 0.053121
vt 0.640417 0.912819
vt 0.875000 0.696879
vt 0.625000 0.053121
vt 0.375000 0.212272
vt 0.125000 0.537728
vt 0.625000 0.212272
vt 0.875000 0.537728
vt 0.375000 0.750000
vt 0.625000 0.750000
vt 0.375000 0.500000
vt 0.625000 0.500000
vt 0.625000 0.639428
vt 0.625000 0.750000
vt 0.625000 0.500000
vt 0.512165 0.500000
vt 0.375000 0.750000
vt 0.125000 0.583333
vt 0.375000 0.166667
vt 0.125000 0.666667
vt 0.375000 0.083333
vt 0.875000 0.666667
vt 0.625000 0.083333
vt 0.875000 0.583333
vt 0.625000 0.166667
vt 0.375000 0.666667
vt 0.375000 0.583333
vt 0.625000 0.583333
vt 0.625000 0.666667
vt 0.375000 0.639428
vt 0.375000 0.632603
vt 0.625000 0.632602
vt 0.375000 0.583333
vt 0.375000 0.666667
vt 0.625000 0.659530
vt 0.625000 0.592036
vt 0.625000 0.500000
vt 0.625000 0.500000
vt 0.414272 0.500000
vt 0.375000 0.500000
vt 0.375000 0.750000
vt 0.375000 0.750000
vt 0.625000 0.750000
vt 0.625000 0.750000
vt 0.375000 0.666667
vt 0.375000 0.666667
vt 0.375000 0.583333
vt 0.375000 0.583333
vt 0.625000 0.583333
vt 0.625000 0.586010
vt 0.625000 0.664546
vt 0.625000 0.666667
vt 0.625000 0.500000
vt 0.625000 0.500000
vt 0.375000 0.500000
vt 0.375000 0.500000
vt 0.375000 0.750000
vt 0.375000 0.750000
vt 0.625000 0.750000
vt 0.625000 0.750000
vt 0.375000 0.666667
vt 0.375000 0.666667
vt 0.375000 0.583333
vt 0.375000 0.583333
vt 0.625000 0.583333
vt 0.625000 0.583333
vt 0.625000 0.666667
vt 0.625000 0.666667
s 0
f 14/21/1 17/27/1 4/9/1 3/7/1
f 3/7/2 4/9/2 8/14/2 7/13/2
f 8/14/3 20/30/3 57/67/3 45/55/3
f 5/11/4 6/12/4 2/4/4 1/1/4
f 15/22/5 18/28/5 5/11/5 1/2/5
f 21/31/6 16/24/6 2/5/6 6/12/6
f 59/69/7 52/62/7 35/45/7 44/54/7
f 5/11/8 18/28/8 53/63/8 49/59/8
f 52/62/9 50/60/9 33/43/9 35/45/9
f 18/28/10 19/29/10 56/66/10 53/63/10
f 27/37/11 10/16/11 9/15/11
f 36/46/12 34/44/12 13/19/12 10/16/12
f 20/30/13 21/31/13 60/70/13 57/67/13
f 55/65/14 47/57/14 32/42/14 40/50/14
f 12/18/15 11/17/15 24/34/15 23/33/15
f 10/16/16 13/19/16 22/32/16 9/15/16
f 25/35/17 12/18/17 23/33/17
f 19/29/18 7/13/18 48/58/18 56/66/18
f 34/44/19 38/48/19 26/36/19 13/19/19
f 30/40/20 42/52/20 28/38/20 11/17/20
f 21/31/21 6/12/21 51/61/21 60/70/21
f 7/13/22 8/14/22 45/55/22 48/58/22
f 6/12/23 5/11/23 49/59/23 51/61/23
f 13/19/24 26/36/24 22/32/24
f 26/36/25 25/35/25 23/33/25 22/32/25
f 23/33/26 24/34/26 9/15/26 22/32/26
f 39/49/27 31/41/27 12/18/27 25/35/27
f 42/52/28 43/53/28 27/37/28 28/38/28
f 43/53/29 36/46/29 10/16/29 27/37/29
f 38/48/30 39/49/30 25/35/30 26/36/30
f 11/17/31 28/38/31 24/34/31
f 28/38/32 27/37/32 9/15/32 24/34/32
f 46/56/33 58/68/33 41/51/33 29/39/33
f 58/68/34 59/69/34 44/54/34 41/51/34
f 50/60/35 54/64/35 37/47/35 33/43/35
f 54/64/36 55/65/36 40/50/36 37/47/36
f 8/14/37 4/10/37 17/26/37 20/30/37
f 20/30/38 17/26/38 16/24/38 21/31/38
f 3/8/39 7/13/39 19/29/39 14/20/39
f 14/20/39 19/29/39 18/28/39 15/22/39
f 1/3/40 2/6/40 16/25/40 15/23/40
f 15/23/41 16/25/41 17/27/41 14/21/41
f 30/40/42 31/41/42 32/42/42 29/39/42
f 40/50/43 32/42/43 31/41/43 39/49/43
f 44/54/44 35/45/44 36/46/44 43/53/44
f 35/45/45 33/43/45 34/44/45 36/46/45
f 33/43/46 37/47/46 38/48/46 34/44/46
f 37/47/47 40/50/47 39/49/47 38/48/47
f 29/39/48 41/51/48 42/52/48 30/40/48
f 41/51/49 44/54/49 43/53/49 42/52/49
f 31/41/50 30/40/50 11/17/50 12/18/50
f 46/56/51 47/57/51 48/58/51 45/55/51
f 56/66/52 48/58/52 47/57/52 55/65/52
f 60/70/53 51/61/53 52/62/53 59/69/53
f 51/61/54 49/59/54 50/60/54 52/62/54
f 49/59/55 53/63/55 54/64/55 50/60/55
f 53/63/56 56/66/56 55/65/56 54/64/56
f 45/55/57 57/67/57 58/68/57 46/56/57
f 57/67/58 60/70/58 59/69/58 58/68/58
f 47/57/59 46/56/59 29/39/59 32/42/59
