# Blender 3.4.1
# www.blender.org
o leaf_3_collider
v 4.798540 -0.628751 6.198333
v 4.802247 -0.223954 6.185179
v 4.835368 -0.247045 -3.317737
v 4.851482 0.157753 -3.330893
v 6.141084 -0.917484 7.342555
v 6.126855 -0.512687 7.330927
v 5.418437 -0.187032 -5.572783
v 5.433797 0.217765 -5.583466
v 18.950418 1.938349 -0.384558
v 17.650032 0.149677 3.222513
v 15.853383 0.502239 -1.569240
v 15.926135 0.097442 -1.556413
v 17.574451 -0.272393 3.138001
v 4.636189 -0.245956 -0.939732
v 4.444259 -0.519050 3.668253
v 4.441657 -0.114253 3.655100
v 4.634446 0.158841 -0.952887
v 5.559803 -0.587524 3.821400
v 5.325233 -0.305857 -0.977137
v 5.335230 0.098940 -0.987818
v 5.549856 -0.182727 3.809772
v 18.940004 1.533324 -0.354545
v 18.802963 1.538908 -0.722777
v 18.813797 1.943929 -0.752923
v 16.135433 -0.439985 1.958505
v 16.065914 -0.035188 2.016673
v 15.590572 0.372468 -0.149806
v 11.314439 0.441520 -5.456195
v 13.167525 0.320429 -3.440650
v 13.244806 -0.099238 -3.456031
v 11.292809 -0.001246 -5.448643
v 11.593964 -1.556044 6.416234
v 13.651939 -1.489840 5.502106
v 11.597965 -1.114784 6.390252
v 13.685596 -1.068543 5.492931
v 11.304113 -1.119425 3.512216
v 13.670740 -1.037905 3.259876
v 13.606215 -0.357388 -0.750442
v 11.371952 -0.464747 -1.333348
v 11.553422 -0.059950 -1.364326
v 13.745384 0.047409 -0.629402
v 13.790755 -0.633108 3.105345
v 11.480095 -0.714628 3.481307
v 7.452121 0.296841 -6.300052
v 9.933097 0.425088 -6.176200
v 9.896789 0.020291 -6.141482
v 7.477502 -0.117212 -6.288916
v 7.118039 -1.071280 7.422789
v 9.264013 -1.427391 7.249119
v 7.133082 -0.655679 7.428160
v 9.311533 -1.022594 7.250822
v 6.853340 -0.779037 3.747660
v 9.124499 -0.999293 3.624330
v 9.116320 -0.408501 -1.990864
v 6.847172 -0.352889 -1.902386
v 6.962669 0.053403 -1.916325
v 9.171808 -0.003704 -2.011460
v 9.179513 -0.594497 3.606377
v 6.973741 -0.374240 3.731112
v 15.797697 -0.032329 -0.172650
v 17.349810 0.977411 -0.545049
v 17.606228 0.639660 0.729926
v 17.633408 0.234864 0.716372
v 17.445572 0.572614 -0.540941
v 18.379210 0.774116 1.331390
v 18.333839 0.360683 1.304664
v 17.510967 0.800608 -1.068920
v 17.482391 1.205404 -1.090864
vn -0.9961 0.0148 -0.0872
vn -0.9679 0.0303 -0.2494
vn 0.0093 0.9991 0.0409
vn -0.6495 0.0148 0.7602
vn -0.1155 -0.9918 -0.0542
vn 0.1168 0.9917 0.0540
vn 0.0721 0.9899 0.1224
vn -0.1498 -0.9864 -0.0677
vn 0.3446 0.0060 0.9387
vn -0.1070 -0.9921 -0.0647
vn -0.4472 0.8023 0.3954
vn 0.5340 -0.1436 0.8332
vn 0.0987 0.9930 0.0653
vn 0.0179 -0.9942 -0.1058
vn 0.2811 -0.0555 -0.9581
vn 0.9552 -0.0639 0.2889
vn 0.5317 -0.7995 -0.2794
vn -0.0122 -0.9991 -0.0404
vn 0.1853 -0.9700 -0.1575
vn -0.1645 0.9807 0.1056
vn 0.1355 0.9883 0.0699
vn -0.3304 -0.0292 -0.9434
vn -0.0880 0.0077 0.9961
vn 0.4691 -0.7929 -0.3890
vn 0.5439 -0.7925 -0.2761
vn 0.9360 -0.0504 -0.3485
vn 0.1571 -0.9823 -0.1021
vn -0.1870 0.9630 0.1941
vn -0.2009 0.9680 0.1502
vn -0.5153 0.8281 0.2207
vn -0.5137 0.8070 0.2915
vn -0.0295 0.9935 0.1101
vn 0.0242 0.9927 0.1183
vn -0.0809 -0.9888 -0.1256
vn -0.0249 -0.9927 -0.1183
vn 0.0326 0.9993 0.0183
vn 0.0668 0.9960 0.0586
vn -0.0328 -0.9993 -0.0182
vn -0.0671 -0.9960 -0.0584
vn -0.9901 0.0059 0.1401
vn -0.9991 -0.0067 -0.0421
vn 0.7257 0.0531 -0.6860
vn 0.0695 -0.9916 -0.1094
vn 0.0164 0.9877 0.1558
vn 0.3999 0.0199 0.9164
vn -0.0118 -0.9855 -0.1695
vn 0.0512 -0.9875 -0.1489
vn -0.0784 0.9896 0.1203
vn -0.0536 0.9867 0.1534
vn 0.5667 0.1057 -0.8171
vn 0.0582 -0.0566 -0.9967
vn 0.0184 -0.9970 -0.0746
vn 0.1383 0.9863 0.0898
vn 0.0785 -0.0146 0.9968
vn -0.1348 -0.9868 -0.0899
vn -0.0646 -0.9939 -0.0896
vn -0.0156 0.9970 0.0761
vn 0.0669 0.9937 0.0897
vn 0.4520 -0.0752 -0.8888
vn 0.1638 -0.9695 -0.1825
vn -0.2349 0.9385 0.2532
vn 0.2549 -0.9353 -0.2453
vn 0.9331 -0.1768 0.3132
vn 0.2898 -0.0048 -0.9571
vn -0.3605 0.9278 0.0964
vn -0.2735 0.9429 0.1902
vn 0.2857 -0.9393 -0.1898
vn 0.3760 -0.9170 -0.1335
vt 0.375000 0.913049
vt 0.125000 0.696879
vt 0.375000 0.053121
vt 0.640417 0.912819
vt 0.875000 0.696879
vt 0.625000 0.053121
vt 0.375000 0.212272
vt 0.125000 0.537728
vt 0.625000 0.212272
vt 0.875000 0.537728
vt 0.375000 0.750000
vt 0.625000 0.750000
vt 0.375000 0.500000
vt 0.625000 0.500000
vt 0.625000 0.639428
vt 0.625000 0.750000
vt 0.625000 0.500000
vt 0.512165 0.500000
vt 0.375000 0.750000
vt 0.125000 0.583333
vt 0.375000 0.166667
vt 0.125000 0.666667
vt 0.375000 0.083333
vt 0.875000 0.666667
vt 0.625000 0.083333
vt 0.875000 0.583333
vt 0.625000 0.166667
vt 0.375000 0.666667
vt 0.375000 0.583333
vt 0.625000 0.583333
vt 0.625000 0.666667
vt 0.375000 0.639428
vt 0.375000 0.632603
vt 0.625000 0.632602
vt 0.375000 0.643080
vt 0.625000 0.640426
vt 0.625000 0.592036
vt 0.625000 0.500000
vt 0.625000 0.500000
vt 0.414272 0.500000
vt 0.375000 0.500000
vt 0.375000 0.750000
vt 0.375000 0.750000
vt 0.625000 0.750000
vt 0.625000 0.750000
vt 0.375000 0.666667
vt 0.375000 0.666667
vt 0.375000 0.583333
vt 0.375000 0.583333
vt 0.625000 0.583333
vt 0.625000 0.586010
vt 0.625000 0.664546
vt 0.625000 0.666667
vt 0.625000 0.500000
vt 0.625000 0.500000
vt 0.375000 0.500000
vt 0.375000 0.500000
vt 0.375000 0.750000
vt 0.375000 0.750000
vt 0.625000 0.750000
vt 0.625000 0.750000
vt 0.375000 0.666667
vt 0.375000 0.666667
vt 0.375000 0.569875
vt 0.375000 0.569875
vt 0.625000 0.569875
vt 0.625000 0.569875
vt 0.625000 0.666667
vt 0.625000 0.666667
vt 0.375000 0.605913
vt 0.625000 0.612319
vt 0.625000 0.639927
vt 0.375000 0.641254
vt 0.375000 0.619258
vt 0.625000 0.694714
vt 0.375000 0.694714
vt 0.443583 0.566301
vt 0.625000 0.566301
s 0
f 14/21/1 17/27/1 4/9/1 3/7/1
f 3/7/2 4/9/2 8/14/2 7/13/2
f 8/14/3 20/30/3 56/66/3 44/54/3
f 5/11/4 6/12/4 2/4/4 1/1/4
f 15/22/5 18/28/5 5/11/5 1/2/5
f 21/31/6 16/24/6 2/5/6 6/12/6
f 58/68/7 51/61/7 34/44/7 43/53/7
f 5/11/8 18/28/8 52/62/8 48/58/8
f 51/61/9 49/59/9 32/42/9 34/44/9
f 18/28/10 19/29/10 55/65/10 52/62/10
f 62/72/11 65/75/11 9/15/11
f 35/45/12 33/43/12 13/19/12 10/16/12
f 20/30/13 21/31/13 59/69/13 56/66/13
f 54/64/14 46/56/14 31/41/14 39/49/14
f 67/77/15 68/78/15 24/34/15 23/33/15
f 65/75/16 66/76/16 22/32/16 9/15/16
f 64/74/17 67/77/17 23/33/17
f 19/29/18 7/13/18 47/57/18 55/65/18
f 33/43/19 37/47/19 25/35/19 13/19/19
f 29/39/20 41/51/20 27/37/20 11/17/20
f 21/31/21 6/12/21 50/60/21 59/69/21
f 7/13/22 8/14/22 44/54/22 47/57/22
f 6/12/23 5/11/23 48/58/23 50/60/23
f 66/76/24 63/73/24 22/32/24
f 63/73/25 64/74/25 23/33/25 22/32/25
f 23/33/26 24/34/26 9/15/26 22/32/26
f 38/48/27 30/40/27 12/18/27 60/70/27
f 41/51/28 42/52/28 26/36/28 27/37/28
f 42/52/29 35/45/29 10/16/29 26/36/29
f 68/78/30 61/71/30 24/34/30
f 61/71/31 62/72/31 9/15/31 24/34/31
f 45/55/32 57/67/32 40/50/32 28/38/32
f 57/67/33 58/68/33 43/53/33 40/50/33
f 49/59/34 53/63/34 36/46/34 32/42/34
f 53/63/35 54/64/35 39/49/35 36/46/35
f 8/14/36 4/10/36 17/26/36 20/30/36
f 20/30/37 17/26/37 16/24/37 21/31/37
f 3/8/38 7/13/38 19/29/38 14/20/38
f 14/20/39 19/29/39 18/28/39 15/22/39
f 1/3/40 2/6/40 16/25/40 15/23/40
f 15/23/41 16/25/41 17/27/41 14/21/41
f 29/39/42 30/40/42 31/41/42 28/38/42
f 39/49/43 31/41/43 30/40/43 38/48/43
f 43/53/44 34/44/44 35/45/44 42/52/44
f 34/44/45 32/42/45 33/43/45 35/45/45
f 32/42/46 36/46/46 37/47/46 33/43/46
f 36/46/47 39/49/47 38/48/47 37/47/47
f 28/38/48 40/50/48 41/51/48 29/39/48
f 40/50/49 43/53/49 42/52/49 41/51/49
f 30/40/50 29/39/50 11/17/50 12/18/50
f 45/55/51 46/56/51 47/57/51 44/54/51
f 55/65/52 47/57/52 46/56/52 54/64/52
f 59/69/53 50/60/53 51/61/53 58/68/53
f 50/60/54 48/58/54 49/59/54 51/61/54
f 48/58/55 52/62/55 53/63/55 49/59/55
f 52/62/56 55/65/56 54/64/56 53/63/56
f 44/54/57 56/66/57 57/67/57 45/55/57
f 56/66/58 59/69/58 58/68/58 57/67/58
f 46/56/59 45/55/59 28/38/59 31/41/59
f 37/47/60 38/48/60 60/70/60 25/35/60
f 27/37/61 26/36/61 62/72/61 61/71/61
f 25/35/62 60/70/62 64/74/62 63/73/62
f 10/16/63 13/19/63 66/76/63 65/75/63
f 12/18/64 11/17/64 68/78/64 67/77/64
f 11/17/65 27/37/65 61/71/65 68/78/65
f 26/36/66 10/16/66 65/75/66 62/72/66
f 13/19/67 25/35/67 63/73/67 66/76/67
f 60/70/68 12/18/68 67/77/68 64/74/68
