{
    "asset" : {
        "generator" : "Khronos glTF Blender I/O v3.2.40",
        "version" : "2.0"
    },
    "scene" : 0,
    "scenes" : [
        {
            "name" : "Scene",
            "nodes" : [
                0,
                1
            ]
        }
    ],
    "nodes" : [
        {
            "mesh" : 0,
            "name" : "anthill_part_1-colonly"
        },
        {
            "mesh" : 1,
            "name" : "anthill_part_1"
        }
    ],
    "materials" : [
        {
            "doubleSided" : true,
            "name" : "anthill_main",
            "pbrMetallicRoughness" : {
                "baseColorFactor" : [
                    0.800000011920929,
                    0.800000011920929,
                    0.800000011920929,
                    1
                ],
                "metallicFactor" : 0
            }
        }
    ],
    "meshes" : [
        {
            "name" : "Plane.034",
            "primitives" : [
                {
                    "attributes" : {
                        "POSITION" : 0,
                        "NORMAL" : 1,
                        "TEXCOORD_0" : 2
                    },
                    "indices" : 3
                }
            ]
        },
        {
            "name" : "Plane.036",
            "primitives" : [
                {
                    "attributes" : {
                        "POSITION" : 4,
                        "NORMAL" : 5,
                        "TEXCOORD_0" : 6
                    },
                    "indices" : 7,
                    "material" : 0
                }
            ]
        }
    ],
    "accessors" : [
        {
            "bufferView" : 0,
            "componentType" : 5126,
            "count" : 58,
            "max" : [
                0.955377995967865,
                0.8976103663444519,
                0.245496466755867
            ],
            "min" : [
                -1.3201264142990112,
                -0.6556903123855591,
                -0.245496466755867
            ],
            "type" : "VEC3"
        },
        {
            "bufferView" : 1,
            "componentType" : 5126,
            "count" : 58,
            "type" : "VEC3"
        },
        {
            "bufferView" : 2,
            "componentType" : 5126,
            "count" : 58,
            "type" : "VEC2"
        },
        {
            "bufferView" : 3,
            "componentType" : 5123,
            "count" : 156,
            "type" : "SCALAR"
        },
        {
            "bufferView" : 4,
            "componentType" : 5126,
            "count" : 236,
            "max" : [
                0.9566449522972107,
                0.8974403738975525,
                0.245496466755867
            ],
            "min" : [
                -1.3271689414978027,
                -0.6539031863212585,
                -0.245496466755867
            ],
            "type" : "VEC3"
        },
        {
            "bufferView" : 5,
            "componentType" : 5126,
            "count" : 236,
            "type" : "VEC3"
        },
        {
            "bufferView" : 6,
            "componentType" : 5126,
            "count" : 236,
            "type" : "VEC2"
        },
        {
            "bufferView" : 7,
            "componentType" : 5123,
            "count" : 1158,
            "type" : "SCALAR"
        }
    ],
    "bufferViews" : [
        {
            "buffer" : 0,
            "byteLength" : 696,
            "byteOffset" : 0
        },
        {
            "buffer" : 0,
            "byteLength" : 696,
            "byteOffset" : 696
        },
        {
            "buffer" : 0,
            "byteLength" : 464,
            "byteOffset" : 1392
        },
        {
            "buffer" : 0,
            "byteLength" : 312,
            "byteOffset" : 1856
        },
        {
            "buffer" : 0,
            "byteLength" : 2832,
            "byteOffset" : 2168
        },
        {
            "buffer" : 0,
            "byteLength" : 2832,
            "byteOffset" : 5000
        },
        {
            "buffer" : 0,
            "byteLength" : 1888,
            "byteOffset" : 7832
        },
        {
            "buffer" : 0,
            "byteLength" : 2316,
            "byteOffset" : 9720
        }
    ],
    "buffers" : [
        {
            "byteLength" : 12036,
            "uri" : "data:application/octet-stream;base64,"
        }
    ]
}
