{
    "asset" : {
        "generator" : "Khronos glTF Blender I/O v3.2.40",
        "version" : "2.0"
    },
    "scene" : 0,
    "scenes" : [
        {
            "name" : "Scene",
            "nodes" : [
                0,
                1
            ]
        }
    ],
    "nodes" : [
        {
            "mesh" : 0,
            "name" : "anthill_part_6"
        },
        {
            "mesh" : 1,
            "name" : "anthill_part_6-colonly"
        }
    ],
    "materials" : [
        {
            "doubleSided" : true,
            "name" : "anthill_main",
            "pbrMetallicRoughness" : {
                "baseColorFactor" : [
                    0.800000011920929,
                    0.800000011920929,
                    0.800000011920929,
                    1
                ],
                "metallicFactor" : 0
            }
        }
    ],
    "meshes" : [
        {
            "name" : "Plane.024",
            "primitives" : [
                {
                    "attributes" : {
                        "POSITION" : 0,
                        "NORMAL" : 1,
                        "TEXCOORD_0" : 2
                    },
                    "indices" : 3,
                    "material" : 0
                }
            ]
        },
        {
            "name" : "Plane.041",
            "primitives" : [
                {
                    "attributes" : {
                        "POSITION" : 4,
                        "NORMAL" : 5,
                        "TEXCOORD_0" : 6
                    },
                    "indices" : 7
                }
            ]
        }
    ],
    "accessors" : [
        {
            "bufferView" : 0,
            "componentType" : 5126,
            "count" : 161,
            "max" : [
                0.10466331243515015,
                0.2956726551055908,
                0.23424839973449707
            ],
            "min" : [
                -0.12253306806087494,
                -0.26809096336364746,
                -0.23424875736236572
            ],
            "type" : "VEC3"
        },
        {
            "bufferView" : 1,
            "componentType" : 5126,
            "count" : 161,
            "type" : "VEC3"
        },
        {
            "bufferView" : 2,
            "componentType" : 5126,
            "count" : 161,
            "type" : "VEC2"
        },
        {
            "bufferView" : 3,
            "componentType" : 5123,
            "count" : 732,
            "type" : "SCALAR"
        },
        {
            "bufferView" : 4,
            "componentType" : 5126,
            "count" : 40,
            "max" : [
                0.10251304507255554,
                0.2956726551055908,
                0.23200447857379913
            ],
            "min" : [
                -0.11396893858909607,
                -0.26809096336364746,
                -0.23200355470180511
            ],
            "type" : "VEC3"
        },
        {
            "bufferView" : 5,
            "componentType" : 5126,
            "count" : 40,
            "type" : "VEC3"
        },
        {
            "bufferView" : 6,
            "componentType" : 5126,
            "count" : 40,
            "type" : "VEC2"
        },
        {
            "bufferView" : 7,
            "componentType" : 5123,
            "count" : 84,
            "type" : "SCALAR"
        }
    ],
    "bufferViews" : [
        {
            "buffer" : 0,
            "byteLength" : 1932,
            "byteOffset" : 0
        },
        {
            "buffer" : 0,
            "byteLength" : 1932,
            "byteOffset" : 1932
        },
        {
            "buffer" : 0,
            "byteLength" : 1288,
            "byteOffset" : 3864
        },
        {
            "buffer" : 0,
            "byteLength" : 1464,
            "byteOffset" : 5152
        },
        {
            "buffer" : 0,
            "byteLength" : 480,
            "byteOffset" : 6616
        },
        {
            "buffer" : 0,
            "byteLength" : 480,
            "byteOffset" : 7096
        },
        {
            "buffer" : 0,
            "byteLength" : 320,
            "byteOffset" : 7576
        },
        {
            "buffer" : 0,
            "byteLength" : 168,
            "byteOffset" : 7896
        }
    ],
    "buffers" : [
        {
            "byteLength" : 8064,
            "uri" : "data:application/octet-stream;base64,"
        }
    ]
}
