{
    "asset" : {
        "generator" : "Khronos glTF Blender I/O v3.2.40",
        "version" : "2.0"
    },
    "scene" : 0,
    "scenes" : [
        {
            "name" : "Scene",
            "nodes" : [
                0,
                1
            ]
        }
    ],
    "nodes" : [
        {
            "mesh" : 0,
            "name" : "anthill_part_2"
        },
        {
            "mesh" : 1,
            "name" : "anthill_part_2-colonly"
        }
    ],
    "materials" : [
        {
            "doubleSided" : true,
            "name" : "anthill_main",
            "pbrMetallicRoughness" : {
                "baseColorFactor" : [
                    0.800000011920929,
                    0.800000011920929,
                    0.800000011920929,
                    1
                ],
                "metallicFactor" : 0
            }
        }
    ],
    "meshes" : [
        {
            "name" : "Cylinder.005",
            "primitives" : [
                {
                    "attributes" : {
                        "POSITION" : 0,
                        "NORMAL" : 1,
                        "TEXCOORD_0" : 2
                    },
                    "indices" : 3,
                    "material" : 0
                }
            ]
        },
        {
            "name" : "Cylinder.007",
            "primitives" : [
                {
                    "attributes" : {
                        "POSITION" : 4,
                        "NORMAL" : 5,
                        "TEXCOORD_0" : 6
                    },
                    "indices" : 7
                }
            ]
        }
    ],
    "accessors" : [
        {
            "bufferView" : 0,
            "componentType" : 5126,
            "count" : 68,
            "max" : [
                0.10596126317977905,
                0.2522794008255005,
                0.23767024278640747
            ],
            "min" : [
                -0.11480644345283508,
                -0.25061261653900146,
                -0.23767054080963135
            ],
            "type" : "VEC3"
        },
        {
            "bufferView" : 1,
            "componentType" : 5126,
            "count" : 68,
            "type" : "VEC3"
        },
        {
            "bufferView" : 2,
            "componentType" : 5126,
            "count" : 68,
            "type" : "VEC2"
        },
        {
            "bufferView" : 3,
            "componentType" : 5123,
            "count" : 276,
            "type" : "SCALAR"
        },
        {
            "bufferView" : 4,
            "componentType" : 5126,
            "count" : 54,
            "max" : [
                0.10596126317977905,
                0.2522794008255005,
                0.23767024278640747
            ],
            "min" : [
                -0.11480644345283508,
                -0.25061261653900146,
                -0.23767054080963135
            ],
            "type" : "VEC3"
        },
        {
            "bufferView" : 5,
            "componentType" : 5126,
            "count" : 54,
            "type" : "VEC3"
        },
        {
            "bufferView" : 6,
            "componentType" : 5126,
            "count" : 54,
            "type" : "VEC2"
        },
        {
            "bufferView" : 7,
            "componentType" : 5123,
            "count" : 192,
            "type" : "SCALAR"
        }
    ],
    "bufferViews" : [
        {
            "buffer" : 0,
            "byteLength" : 816,
            "byteOffset" : 0
        },
        {
            "buffer" : 0,
            "byteLength" : 816,
            "byteOffset" : 816
        },
        {
            "buffer" : 0,
            "byteLength" : 544,
            "byteOffset" : 1632
        },
        {
            "buffer" : 0,
            "byteLength" : 552,
            "byteOffset" : 2176
        },
        {
            "buffer" : 0,
            "byteLength" : 648,
            "byteOffset" : 2728
        },
        {
            "buffer" : 0,
            "byteLength" : 648,
            "byteOffset" : 3376
        },
        {
            "buffer" : 0,
            "byteLength" : 432,
            "byteOffset" : 4024
        },
        {
            "buffer" : 0,
            "byteLength" : 384,
            "byteOffset" : 4456
        }
    ],
    "buffers" : [
        {
            "byteLength" : 4840,
            "uri" : "data:application/octet-stream;base64,"
        }
    ]
}
