{
    "asset" : {
        "generator" : "Khronos glTF Blender I/O v3.2.40",
        "version" : "2.0"
    },
    "scene" : 0,
    "scenes" : [
        {
            "name" : "Scene",
            "nodes" : [
                0,
                1
            ]
        }
    ],
    "nodes" : [
        {
            "mesh" : 0,
            "name" : "anthill_top_1"
        },
        {
            "mesh" : 1,
            "name" : "anthill_top_1-colonly"
        }
    ],
    "materials" : [
        {
            "doubleSided" : true,
            "name" : "anthill_main",
            "pbrMetallicRoughness" : {
                "baseColorFactor" : [
                    0.800000011920929,
                    0.800000011920929,
                    0.800000011920929,
                    1
                ],
                "metallicFactor" : 0
            }
        }
    ],
    "meshes" : [
        {
            "name" : "Plane.018",
            "primitives" : [
                {
                    "attributes" : {
                        "POSITION" : 0,
                        "NORMAL" : 1,
                        "TEXCOORD_0" : 2
                    },
                    "indices" : 3,
                    "material" : 0
                }
            ]
        },
        {
            "name" : "Plane.040",
            "primitives" : [
                {
                    "attributes" : {
                        "POSITION" : 4,
                        "NORMAL" : 5,
                        "TEXCOORD_0" : 6
                    },
                    "indices" : 7
                }
            ]
        }
    ],
    "accessors" : [
        {
            "bufferView" : 0,
            "componentType" : 5126,
            "count" : 212,
            "max" : [
                0.34720686078071594,
                0.3021087646484375,
                0.23570257425308228
            ],
            "min" : [
                -0.3478790819644928,
                -0.29057765007019043,
                -0.23661023378372192
            ],
            "type" : "VEC3"
        },
        {
            "bufferView" : 1,
            "componentType" : 5126,
            "count" : 212,
            "type" : "VEC3"
        },
        {
            "bufferView" : 2,
            "componentType" : 5126,
            "count" : 212,
            "type" : "VEC2"
        },
        {
            "bufferView" : 3,
            "componentType" : 5123,
            "count" : 924,
            "type" : "SCALAR"
        },
        {
            "bufferView" : 4,
            "componentType" : 5126,
            "count" : 79,
            "max" : [
                0.34720686078071594,
                0.3021087646484375,
                0.21909433603286743
            ],
            "min" : [
                -0.3478790819644928,
                -0.29057765007019043,
                -0.2188412845134735
            ],
            "type" : "VEC3"
        },
        {
            "bufferView" : 5,
            "componentType" : 5126,
            "count" : 79,
            "type" : "VEC3"
        },
        {
            "bufferView" : 6,
            "componentType" : 5126,
            "count" : 79,
            "type" : "VEC2"
        },
        {
            "bufferView" : 7,
            "componentType" : 5123,
            "count" : 204,
            "type" : "SCALAR"
        }
    ],
    "bufferViews" : [
        {
            "buffer" : 0,
            "byteLength" : 2544,
            "byteOffset" : 0
        },
        {
            "buffer" : 0,
            "byteLength" : 2544,
            "byteOffset" : 2544
        },
        {
            "buffer" : 0,
            "byteLength" : 1696,
            "byteOffset" : 5088
        },
        {
            "buffer" : 0,
            "byteLength" : 1848,
            "byteOffset" : 6784
        },
        {
            "buffer" : 0,
            "byteLength" : 948,
            "byteOffset" : 8632
        },
        {
            "buffer" : 0,
            "byteLength" : 948,
            "byteOffset" : 9580
        },
        {
            "buffer" : 0,
            "byteLength" : 632,
            "byteOffset" : 10528
        },
        {
            "buffer" : 0,
            "byteLength" : 408,
            "byteOffset" : 11160
        }
    ],
    "buffers" : [
        {
            "byteLength" : 11568,
            "uri" : "data:application/octet-stream;base64,"
        }
    ]
}
