{
    "asset" : {
        "generator" : "Khronos glTF Blender I/O v3.2.40",
        "version" : "2.0"
    },
    "scene" : 0,
    "scenes" : [
        {
            "name" : "Scene",
            "nodes" : [
                0
            ]
        }
    ],
    "nodes" : [
        {
            "mesh" : 0,
            "name" : "anthill_back"
        }
    ],
    "materials" : [
        {
            "doubleSided" : true,
            "name" : "anthill_main",
            "pbrMetallicRoughness" : {
                "baseColorFactor" : [
                    0.800000011920929,
                    0.800000011920929,
                    0.800000011920929,
                    1
                ],
                "metallicFactor" : 0
            }
        }
    ],
    "meshes" : [
        {
            "name" : "Plane.020",
            "primitives" : [
                {
                    "attributes" : {
                        "POSITION" : 0,
                        "NORMAL" : 1,
                        "TEXCOORD_0" : 2
                    },
                    "indices" : 3,
                    "material" : 0
                }
            ]
        }
    ],
    "accessors" : [
        {
            "bufferView" : 0,
            "componentType" : 5126,
            "count" : 99,
            "max" : [
                1.107287883758545,
                2.5705878734588623,
                0.09669005870819092
            ],
            "min" : [
                -1.0880688428878784,
                -0.002122163772583008,
                -0.10244885087013245
            ],
            "type" : "VEC3"
        },
        {
            "bufferView" : 1,
            "componentType" : 5126,
            "count" : 99,
            "type" : "VEC3"
        },
        {
            "bufferView" : 2,
            "componentType" : 5126,
            "count" : 99,
            "type" : "VEC2"
        },
        {
            "bufferView" : 3,
            "componentType" : 5123,
            "count" : 420,
            "type" : "SCALAR"
        }
    ],
    "bufferViews" : [
        {
            "buffer" : 0,
            "byteLength" : 1188,
            "byteOffset" : 0
        },
        {
            "buffer" : 0,
            "byteLength" : 1188,
            "byteOffset" : 1188
        },
        {
            "buffer" : 0,
            "byteLength" : 792,
            "byteOffset" : 2376
        },
        {
            "buffer" : 0,
            "byteLength" : 840,
            "byteOffset" : 3168
        }
    ],
    "buffers" : [
        {
            "byteLength" : 4008,
            "uri" : "data:application/octet-stream;base64,"
        }
    ]
}
