{
    "asset" : {
        "generator" : "Khronos glTF Blender I/O v3.2.40",
        "version" : "2.0"
    },
    "scene" : 0,
    "scenes" : [
        {
            "name" : "Scene",
            "nodes" : [
                0,
                1
            ]
        }
    ],
    "nodes" : [
        {
            "mesh" : 0,
            "name" : "anthill_wall_short"
        },
        {
            "mesh" : 1,
            "name" : "anthill_wall_short-colonly"
        }
    ],
    "materials" : [
        {
            "doubleSided" : true,
            "name" : "anthill_main",
            "pbrMetallicRoughness" : {
                "baseColorFactor" : [
                    0.800000011920929,
                    0.800000011920929,
                    0.800000011920929,
                    1
                ],
                "metallicFactor" : 0
            }
        }
    ],
    "meshes" : [
        {
            "name" : "Plane.026",
            "primitives" : [
                {
                    "attributes" : {
                        "POSITION" : 0,
                        "NORMAL" : 1,
                        "TEXCOORD_0" : 2
                    },
                    "indices" : 3,
                    "material" : 0
                }
            ]
        },
        {
            "name" : "Plane.039",
            "primitives" : [
                {
                    "attributes" : {
                        "POSITION" : 4,
                        "NORMAL" : 5,
                        "TEXCOORD_0" : 6
                    },
                    "indices" : 7
                }
            ]
        }
    ],
    "accessors" : [
        {
            "bufferView" : 0,
            "componentType" : 5126,
            "count" : 79,
            "max" : [
                0.06066378951072693,
                0.23003196716308594,
                0.22769850492477417
            ],
            "min" : [
                -0.08175134658813477,
                -0.2672131061553955,
                -0.22769898176193237
            ],
            "type" : "VEC3"
        },
        {
            "bufferView" : 1,
            "componentType" : 5126,
            "count" : 79,
            "type" : "VEC3"
        },
        {
            "bufferView" : 2,
            "componentType" : 5126,
            "count" : 79,
            "type" : "VEC2"
        },
        {
            "bufferView" : 3,
            "componentType" : 5123,
            "count" : 276,
            "type" : "SCALAR"
        },
        {
            "bufferView" : 4,
            "componentType" : 5126,
            "count" : 31,
            "max" : [
                0.05866418778896332,
                0.23003196716308594,
                0.23808807134628296
            ],
            "min" : [
                -0.08175134658813477,
                -0.2672131061553955,
                -0.23808878660202026
            ],
            "type" : "VEC3"
        },
        {
            "bufferView" : 5,
            "componentType" : 5126,
            "count" : 31,
            "type" : "VEC3"
        },
        {
            "bufferView" : 6,
            "componentType" : 5126,
            "count" : 31,
            "type" : "VEC2"
        },
        {
            "bufferView" : 7,
            "componentType" : 5123,
            "count" : 66,
            "type" : "SCALAR"
        }
    ],
    "bufferViews" : [
        {
            "buffer" : 0,
            "byteLength" : 948,
            "byteOffset" : 0
        },
        {
            "buffer" : 0,
            "byteLength" : 948,
            "byteOffset" : 948
        },
        {
            "buffer" : 0,
            "byteLength" : 632,
            "byteOffset" : 1896
        },
        {
            "buffer" : 0,
            "byteLength" : 552,
            "byteOffset" : 2528
        },
        {
            "buffer" : 0,
            "byteLength" : 372,
            "byteOffset" : 3080
        },
        {
            "buffer" : 0,
            "byteLength" : 372,
            "byteOffset" : 3452
        },
        {
            "buffer" : 0,
            "byteLength" : 248,
            "byteOffset" : 3824
        },
        {
            "buffer" : 0,
            "byteLength" : 132,
            "byteOffset" : 4072
        }
    ],
    "buffers" : [
        {
            "byteLength" : 4204,
            "uri" : "data:application/octet-stream;base64,"
        }
    ]
}
