<?xml version="1.0" encoding="utf-8"?>
<!-- Generator: Adobe Illustrator 27.0.0, SVG Export Plug-In . SVG Version: 6.00 Build 0)  -->
<svg version="1.1"
	 id="Logo_00000160178515126842245250000017260957129819609750_" xmlns:svg="http://www.w3.org/2000/svg" xmlns:sodipodi="http://sodipodi.sourceforge.net/DTD/sodipodi-0.dtd" xmlns:inkscape="http://www.inkscape.org/namespaces/inkscape"
	 xmlns="http://www.w3.org/2000/svg" xmlns:xlink="http://www.w3.org/1999/xlink" x="0px" y="0px" viewBox="0 0 279.4 110"
	 style="enable-background:new 0 0 279.4 110;" xml:space="preserve">
<style type="text/css">
	.st0{fill:#393536;}
	.st1{fill:#F36717;}
</style>
<g id="LogoTextGames">
	<path id="LetterS_00000119835796711098939200000000679892319494210443_" class="st0" d="M271.7,107.2l1.1-0.7
		c0.8,1.4,1.7,2.2,2.7,2.2c0.4,0,0.9-0.1,1.2-0.3c0.4-0.2,0.7-0.5,0.9-0.8c0.2-0.3,0.3-0.7,0.3-1.1c0-0.4-0.2-0.9-0.4-1.3
		c-0.4-0.6-1.2-1.3-2.3-2.1c-1.1-0.8-1.8-1.4-2-1.8c-0.5-0.6-0.7-1.3-0.7-2c0-0.6,0.1-1.1,0.4-1.6c0.3-0.5,0.7-0.8,1.2-1.1
		c0.5-0.3,1-0.4,1.6-0.4c0.6,0,1.2,0.1,1.7,0.5c0.5,0.3,1.1,0.9,1.7,1.7l-1.1,0.8c-0.5-0.7-0.9-1.1-1.3-1.3
		c-0.4-0.2-0.7-0.3-1.1-0.3c-0.5,0-1,0.2-1.3,0.5c-0.3,0.3-0.5,0.7-0.5,1.2c0,0.3,0.1,0.6,0.2,0.8c0.1,0.3,0.3,0.6,0.7,0.9
		c0.2,0.2,0.7,0.6,1.7,1.3c1.1,0.8,1.9,1.6,2.3,2.2c0.4,0.7,0.6,1.3,0.6,2c0,1-0.4,1.8-1.1,2.5c-0.7,0.7-1.6,1.1-2.6,1.1
		c-0.8,0-1.5-0.2-2.2-0.6C272.8,108.9,272.2,108.2,271.7,107.2L271.7,107.2"/>
	<path id="LetterE" class="st0" d="M263.2,96.6h7.5v1.3h-6.2v4.1h6.2v1.3h-6.2v5.1h6.2v1.3h-7.5V96.6L263.2,96.6"/>
	<path id="LetterM" class="st0" d="M245.8,109.7l1.9-13.1h0.2l5.3,10.7l5.3-10.7h0.2l1.9,13.1h-1.3l-1.3-9.4l-4.6,9.4h-0.3l-4.7-9.4
		l-1.3,9.4H245.8L245.8,109.7"/>
	<path id="LetterA" class="st0" d="M238.1,99.4l-2.2,4.7h4.5L238.1,99.4z M238.2,96.6l6.1,13.1H243l-2.1-4.3h-5.7l-2,4.3h-1.5
		l6.2-13.1H238.2L238.2,96.6"/>
	<path id="LetterG" class="st0" d="M229.6,98.8l-1,1c-0.7-0.7-1.5-1.3-2.4-1.6c-0.9-0.4-1.7-0.6-2.6-0.6c-1,0-2,0.3-2.9,0.8
		c-0.9,0.5-1.7,1.2-2.2,2.1c-0.5,0.9-0.8,1.8-0.8,2.7c0,1,0.3,1.9,0.8,2.8c0.5,0.9,1.3,1.6,2.2,2.1c0.9,0.5,2,0.8,3.1,0.8
		c1.4,0,2.5-0.4,3.4-1.1c0.9-0.8,1.5-1.7,1.7-3h-4.2v-1.3h5.7c0,2-0.6,3.6-1.8,4.8c-1.2,1.2-2.8,1.8-4.8,1.8c-2.4,0-4.4-0.8-5.8-2.5
		c-1.1-1.3-1.6-2.7-1.6-4.4c0-1.2,0.3-2.4,0.9-3.5c0.6-1.1,1.5-1.9,2.6-2.5c1.1-0.6,2.3-0.9,3.7-0.9c1.1,0,2.2,0.2,3.1,0.6
		C227.7,97.2,228.7,97.9,229.6,98.8L229.6,98.8"/>
</g>
<g id="LogoTextFor">
	<path id="LetterR" class="st1" d="M202.1,97.9v4.4l2.3,0c0.9,0,1.5-0.1,1.9-0.2c0.4-0.2,0.7-0.4,1-0.8c0.2-0.4,0.4-0.8,0.4-1.2
		c0-0.4-0.1-0.8-0.4-1.2c-0.2-0.4-0.6-0.6-0.9-0.8c-0.4-0.2-1-0.2-1.9-0.2H202.1L202.1,97.9z M200.8,96.6h2.6c1.5,0,2.4,0.1,3,0.2
		c0.8,0.2,1.4,0.6,1.9,1.1c0.5,0.6,0.7,1.3,0.7,2.2c0,0.7-0.2,1.3-0.5,1.9c-0.3,0.5-0.8,0.9-1.4,1.2c-0.6,0.3-1.5,0.4-2.6,0.4
		l4.7,6.1h-1.6l-4.7-6.1h-0.7v6.1h-1.3L200.8,96.6L200.8,96.6"/>
	<path id="LetterO" class="st1" d="M191.1,97.5c-1,0-1.9,0.3-2.8,0.8c-0.9,0.5-1.6,1.2-2,2c-0.5,0.9-0.7,1.8-0.7,2.9
		c0,1.6,0.5,2.9,1.6,3.9c1.1,1.1,2.4,1.6,3.9,1.6c1,0,2-0.2,2.8-0.7c0.9-0.5,1.5-1.2,2-2c0.5-0.9,0.7-1.8,0.7-2.9c0-1-0.2-2-0.7-2.8
		c-0.5-0.8-1.2-1.5-2.1-2C193.1,97.8,192.1,97.5,191.1,97.5L191.1,97.5z M191.1,96.2c2,0,3.7,0.7,5,2c1.3,1.3,2,3,2,4.9
		c0,1.9-0.7,3.5-2,4.9c-1.3,1.3-3,2-4.9,2c-1.9,0-3.6-0.7-4.9-2c-1.3-1.3-2-2.9-2-4.8c0-1.3,0.3-2.4,0.9-3.5
		c0.6-1.1,1.4-1.9,2.5-2.5C188.7,96.6,189.9,96.2,191.1,96.2L191.1,96.2"/>
	<path id="LetterF" class="st1" d="M176,96.6h6.6v1.3h-5.3v4.1h5.3v1.3h-5.3v6.4H176V96.6L176,96.6"/>
</g>
<g id="LogoTextSchool">
	<path id="LetterL" class="st0" d="M162.4,96.6h1.3v11.8h5.1v1.3h-6.4L162.4,96.6L162.4,96.6"/>
	<path id="LetterO.2" class="st0" d="M136.9,97.5c-1,0-1.9,0.3-2.8,0.8c-0.9,0.5-1.6,1.2-2,2c-0.5,0.9-0.7,1.8-0.7,2.9
		c0,1.6,0.5,2.9,1.6,3.9c1.1,1.1,2.4,1.6,3.9,1.6c1,0,2-0.2,2.8-0.7c0.9-0.5,1.5-1.2,2-2c0.5-0.9,0.7-1.8,0.7-2.9c0-1-0.2-2-0.7-2.8
		c-0.5-0.8-1.2-1.5-2.1-2C138.9,97.8,137.9,97.5,136.9,97.5z M136.9,96.2c2,0,3.7,0.7,5,2c1.3,1.3,2,3,2,4.9c0,1.9-0.7,3.5-2,4.9
		c-1.3,1.3-3,2-4.9,2c-1.9,0-3.6-0.7-4.9-2c-1.3-1.3-2-2.9-2-4.8c0-1.3,0.3-2.4,0.9-3.5c0.6-1.1,1.4-1.9,2.5-2.5
		C134.5,96.6,135.6,96.2,136.9,96.2L136.9,96.2"/>
	<path id="LetterO.1" class="st0" d="M152.8,97.5c-1,0-1.9,0.3-2.8,0.8c-0.9,0.5-1.6,1.2-2,2c-0.5,0.9-0.7,1.8-0.7,2.9
		c0,1.6,0.5,2.9,1.6,3.9c1.1,1.1,2.4,1.6,3.9,1.6c1,0,2-0.2,2.8-0.7c0.9-0.5,1.5-1.2,2-2c0.5-0.9,0.7-1.8,0.7-2.9c0-1-0.2-2-0.7-2.8
		c-0.5-0.8-1.2-1.5-2.1-2C154.8,97.8,153.8,97.5,152.8,97.5z M152.8,96.2c2,0,3.7,0.7,5,2c1.3,1.3,2,3,2,4.9c0,1.9-0.7,3.5-2,4.9
		c-1.3,1.3-3,2-4.9,2c-2,0-3.6-0.7-4.9-2c-1.3-1.3-2-2.9-2-4.8c0-1.3,0.3-2.4,0.9-3.5c0.6-1.1,1.4-1.9,2.5-2.5
		C150.4,96.6,151.6,96.2,152.8,96.2L152.8,96.2"/>
	<path id="LetterH" class="st0" d="M118.1,96.6h1.3v5.5h6.7v-5.5h1.3v13.1h-1.3v-6.3h-6.7v6.3h-1.3V96.6L118.1,96.6"/>
	<path id="LetterC" class="st0" d="M115.5,99l-1,0.8c-0.6-0.7-1.3-1.3-2.1-1.7c-0.8-0.4-1.7-0.6-2.6-0.6c-1,0-2,0.2-2.9,0.8
		c-0.9,0.5-1.6,1.2-2.1,2c-0.5,0.8-0.7,1.8-0.7,2.9c0,1.6,0.5,2.9,1.6,4c1.1,1.1,2.5,1.6,4.2,1.6c1.8,0,3.4-0.7,4.6-2.2l1,0.8
		c-0.7,0.8-1.5,1.5-2.5,1.9c-1,0.5-2.1,0.7-3.3,0.7c-2.3,0-4.1-0.8-5.4-2.3c-1.1-1.3-1.7-2.8-1.7-4.7c0-1.9,0.7-3.5,2-4.8
		c1.4-1.3,3-2,5.1-2c1.2,0,2.3,0.2,3.3,0.7C114,97.5,114.8,98.1,115.5,99L115.5,99"/>
	<path id="LetterS" class="st0" d="M92.7,107.2l1.1-0.7c0.8,1.4,1.7,2.2,2.7,2.2c0.4,0,0.9-0.1,1.2-0.3c0.4-0.2,0.7-0.5,0.9-0.8
		c0.2-0.3,0.3-0.7,0.3-1.1c0-0.4-0.1-0.9-0.4-1.3c-0.4-0.6-1.2-1.3-2.3-2.1c-1.1-0.8-1.8-1.4-2-1.8c-0.5-0.6-0.7-1.3-0.7-2
		c0-0.6,0.1-1.1,0.4-1.6c0.3-0.5,0.7-0.8,1.2-1.1c0.5-0.3,1-0.4,1.6-0.4c0.6,0,1.2,0.1,1.7,0.5c0.5,0.3,1.1,0.9,1.7,1.7l-1.1,0.8
		c-0.5-0.7-0.9-1.1-1.3-1.3c-0.3-0.2-0.7-0.3-1.1-0.3c-0.5,0-1,0.2-1.3,0.5c-0.3,0.3-0.5,0.7-0.5,1.2c0,0.3,0.1,0.6,0.2,0.8
		c0.1,0.3,0.3,0.6,0.7,0.9c0.2,0.2,0.7,0.6,1.7,1.3c1.1,0.8,1.9,1.6,2.3,2.2c0.4,0.7,0.6,1.3,0.6,2c0,1-0.4,1.8-1.1,2.5
		c-0.7,0.7-1.6,1.1-2.6,1.1c-0.8,0-1.5-0.2-2.2-0.6C93.9,108.9,93.3,108.2,92.7,107.2L92.7,107.2"/>
</g>
<g id="LogoGraphics">
	<path id="LogoG" class="st0" d="M189.3,6.9c0,4.1,0,75.4,0,77.8c0,3.7,2.8,6.8,7.4,6.8c4.6,0,71,0,74.6,0c3.9,0,7.6-3,7.6-7.3
		c0-3,0-47.6,0-47.6h-45.4v19.5h16.3v5.2h-22V31.3h51.3c0,0,0-20.7,0-24.4c0-4.3-3.4-6.8-7.7-6.8c-4.1,0-70.9,0-74.6,0
		C192.5,0.1,189.3,2.2,189.3,6.9L189.3,6.9"/>
	<path id="Logo4Back" class="st0" d="M185,91.4c0,0-79.1,0-83.6,0c-5.1,0-7.4-3.4-7.4-6.9c0-2.4,0-73.3,0-76.9
		c0-4.8,2.5-7.6,7.4-7.6c4.1,0,83.6,0,83.6,0V91.4L185,91.4"/>
	<path id="Logo4" class="st1" d="M150.2,61.5V8.7c0,0-0.8,1.7-1.3,2.6c-0.5,0.9-25.5,50.2-25.5,50.2S150.2,61.5,150.2,61.5z
		 M112.8,78.4c-2.6,0-4.7-1.5-4.7-4.4c0-1.6,0-7.1,0-10.1c0-2.1,1-3.8,1-3.8L139.5,0H185v61.4c0,0,8.4,0,10.2,0c2,0,3,0.9,3,2.8
		c0,2,0,9.8,0,11.1c0,2-1.3,2.9-3,2.9c-1.2,0-10.2,0-10.2,0v13.2h-34.5v-13C150.4,78.4,114.7,78.4,112.8,78.4L112.8,78.4"/>
	<path id="LogoS" class="st0" d="M0,56.1C0,8.2,0,8.9,0,8.2C0,2.9,3.1,0,8.2,0c3.3,0,70.6,0,74.2,0c4.5,0,7.4,2.7,7.4,7.6
		c0,3.3,0,23.8,0,23.8H51.1v-6.9h-6v12.1h44.9c0,0,0,44.2,0,48c0,4.6-3.2,6.8-7.4,6.8c-5.5,0-69.5,0-75,0c-3.9,0-7.5-2.3-7.5-6.8
		c0-3.4,0-23.2,0-23.2h38.2v7.2h6V56.1H0L0,56.1"/>
</g>
</svg>
